<svg width="17" height="17" viewBox="0 0 17 17" fill="none" xmlns="http://www.w3.org/2000/svg">
<path d="M14.3105 2.72461C15.9264 4.31836 16.7344 6.25521 16.7344 8.53516C16.7344 10.8151 15.9264 12.763 14.3105 14.3789C12.7168 15.9727 10.7799 16.7695 8.5 16.7695C6.22005 16.7695 4.27214 15.9727 2.65625 14.3789C1.0625 12.763 0.265625 10.8151 0.265625 8.53516C0.265625 6.25521 1.0625 4.31836 2.65625 2.72461C4.27214 1.10872 6.22005 0.300781 8.5 0.300781C10.7799 0.300781 12.7168 1.10872 14.3105 2.72461ZM7.53711 12.8848L13.6465 6.77539C13.9121 6.5319 13.9121 6.28841 13.6465 6.04492L12.916 5.28125C12.6504 5.03776 12.3958 5.03776 12.1523 5.28125L7.17188 10.2617L4.84766 7.9375C4.60417 7.69401 4.34961 7.69401 4.08398 7.9375L3.35352 8.70117C3.08789 8.94466 3.08789 9.18815 3.35352 9.43164L6.80664 12.8848C7.05013 13.1504 7.29362 13.1504 7.53711 12.8848Z" fill="#704FE6"/>
</svg>
