<svg width="38" height="38" viewBox="0 0 38 38" fill="none" xmlns="http://www.w3.org/2000/svg">
<path d="M37.24 20.5199L32.0467 11.3999C31.8778 11.1466 31.6878 10.9988 31.4767 10.9566C31.2656 10.9144 31.0756 10.9355 30.9067 11.0199L29.0067 12.1599V5.06659L25.2067 0.759914L24.9533 0.633251H10.1333C9.79557 0.633251 9.52113 0.738804 9.31001 0.949917C9.0989 1.16103 8.99335 1.39325 8.99335 1.64658V13.4266L7.09335 12.2866C6.92446 12.2021 6.73446 12.181 6.52335 12.2233C6.31224 12.2655 6.12224 12.371 5.95335 12.5399L0.760014 21.7866C0.591125 21.9555 0.548903 22.1666 0.633348 22.4199C0.717792 22.6733 0.844459 22.8421 1.01335 22.9266L5.32001 25.4599C5.99557 26.051 6.58668 26.7266 7.09335 27.4866L5.70001 30.0199C5.44668 30.4421 5.34113 30.9066 5.38335 31.4133C5.42557 31.9199 5.61557 32.3421 5.95335 32.6799C6.29113 33.0177 6.69224 33.2288 7.15668 33.3133C7.62113 33.3977 8.10668 33.3555 8.61335 33.1866C8.78224 33.7777 9.18335 34.221 9.81668 34.5166C10.45 34.8121 11.0622 34.791 11.6533 34.4533C11.8222 35.0444 12.1811 35.4666 12.73 35.7199C13.2789 35.9733 13.8067 36.0577 14.3133 35.9733C14.5667 35.8888 14.82 35.7621 15.0733 35.5933C15.2422 36.0155 15.5167 36.3533 15.8967 36.6066C16.2767 36.8599 16.6778 36.9866 17.1 36.9866C17.9445 36.9866 18.5778 36.6066 19 35.8466L21.0267 37.1133C21.4489 37.3666 21.9133 37.4721 22.42 37.4299C22.9267 37.3877 23.3911 37.1977 23.8133 36.8599C24.2356 36.5221 24.5311 36.121 24.7 35.6566C24.8689 35.1921 24.8689 34.7066 24.7 34.1999V33.9466H24.9533C25.6289 33.7777 26.1356 33.3766 26.4733 32.7433C26.8111 32.1099 26.8956 31.4555 26.7267 30.7799L26.6 30.6533C27.36 30.4844 27.9511 30.0621 28.3733 29.3866C28.7956 28.711 28.88 27.9933 28.6267 27.2333C29.3867 27.0644 29.9356 26.6421 30.2733 25.9666L30.5267 25.7133C30.78 25.5444 31.1178 25.2699 31.54 24.8899C31.9622 24.5099 32.2156 24.3199 32.3 24.3199C32.3845 24.3199 32.4689 24.2777 32.5533 24.1933L36.9867 21.6599C37.1556 21.5755 37.2822 21.4277 37.3667 21.2166C37.4511 21.0055 37.4089 20.7733 37.24 20.5199ZM25.46 2.65992L27.1067 4.43325H25.46V2.65992ZM10.1333 1.77325H24.1933V5.06659C24.1933 5.23547 24.2567 5.38325 24.3833 5.50992C24.51 5.63659 24.6578 5.69992 24.8267 5.69992H27.8667V12.7933L26.6 13.5533C25.3333 13.4688 23.9822 13.5533 22.5467 13.8066C20.9422 13.9755 19.6333 14.3133 18.62 14.8199L17.9867 15.0733C17.6489 15.1577 17.3533 15.2844 17.1 15.4533C14.9889 14.6933 13.0889 14.4399 11.4 14.6933L10.1333 14.0599V1.77325ZM5.44668 24.0666L1.90001 22.0399L6.84001 13.5533L10.3867 15.5799L5.44668 24.0666ZM8.74002 31.2866L8.48668 31.6666C8.40224 31.9199 8.21224 32.0888 7.91668 32.1733C7.62113 32.2577 7.34668 32.2155 7.09335 32.0466C6.84001 31.8777 6.67113 31.6666 6.58668 31.4133C6.50224 31.1599 6.54446 30.9066 6.71335 30.6533L8.86668 26.8533C8.95113 26.5999 9.14113 26.431 9.43668 26.3466C9.73224 26.2621 10.0067 26.3044 10.26 26.4733C10.5133 26.6421 10.6822 26.8744 10.7667 27.1699C10.8511 27.4655 10.8089 27.7399 10.64 27.9933L8.74002 31.2866ZM11.78 32.6799L11.6533 32.9333C11.4845 33.1866 11.2522 33.3555 10.9567 33.4399C10.6611 33.5244 10.3867 33.5033 10.1333 33.3766C9.88001 33.2499 9.71113 33.0388 9.62668 32.7433C9.54224 32.4477 9.58446 32.1733 9.75335 31.9199L11.6533 28.4999C11.8222 28.2466 12.0545 28.0988 12.35 28.0566C12.6456 28.0144 12.92 28.0566 13.1733 28.1833C13.4267 28.3099 13.5956 28.521 13.68 28.8166C13.7645 29.1121 13.7222 29.3866 13.5533 29.6399L11.78 32.6799ZM14.6933 34.3266C14.5245 34.5799 14.3133 34.7488 14.06 34.8333C13.8067 34.9177 13.5322 34.8755 13.2367 34.7066C12.9411 34.5377 12.7722 34.3055 12.73 34.0099C12.6878 33.7144 12.7089 33.4399 12.7933 33.1866L14.5667 30.2733C14.7356 30.0199 14.9678 29.851 15.2633 29.7666C15.5589 29.6821 15.8333 29.7033 16.0867 29.8299C16.34 29.9566 16.4878 30.1677 16.53 30.4633C16.5722 30.7588 16.5511 31.0333 16.4667 31.2866L15.0733 33.5666L14.6933 34.3266ZM16.5933 35.5933C16.34 35.4244 16.1711 35.2133 16.0867 34.9599C16.0022 34.7066 16.0022 34.4533 16.0867 34.1999L17.48 31.9199C17.6489 31.6666 17.86 31.4977 18.1133 31.4133C18.3667 31.3288 18.62 31.3499 18.8733 31.4766C19.1267 31.6033 19.2956 31.8144 19.38 32.1099C19.4645 32.4055 19.4222 32.6799 19.2533 32.9333L17.9867 35.2133C17.8178 35.4666 17.6067 35.6355 17.3533 35.7199C17.1 35.8044 16.8467 35.7621 16.5933 35.5933ZM23.4333 35.5933C23.2645 35.8466 22.99 36.0366 22.61 36.1633C22.23 36.2899 21.9133 36.2688 21.66 36.0999L19.6333 34.8333L20.3933 33.5666C20.5622 33.1444 20.6467 32.7221 20.6467 32.2999L22.9267 33.6933C23.2645 33.8621 23.4756 34.1366 23.56 34.5166C23.6445 34.8966 23.6022 35.2555 23.4333 35.5933ZM29.26 25.4599C29.0911 25.7977 28.8378 26.0088 28.5 26.0933C28.1622 26.1777 27.8245 26.1355 27.4867 25.9666L22.5467 23.0533C22.2933 22.9688 22.0822 22.9688 21.9133 23.0533C21.7445 23.1377 21.66 23.3066 21.66 23.5599C21.66 23.8133 21.7445 23.9821 21.9133 24.0666L26.8533 26.9799C27.1911 27.1488 27.4022 27.4021 27.4867 27.7399C27.5711 28.0777 27.5289 28.4155 27.36 28.7533C27.1911 29.091 26.9167 29.3021 26.5367 29.3866C26.1567 29.471 25.7978 29.4288 25.46 29.2599L21.66 27.1066C21.4911 27.0221 21.3011 27.0221 21.09 27.1066C20.8789 27.191 20.7733 27.3599 20.7733 27.6133C20.7733 27.8666 20.9 28.0355 21.1533 28.1199L24.9533 30.2733C25.2067 30.5266 25.3967 30.8221 25.5233 31.1599C25.65 31.4977 25.6078 31.8355 25.3967 32.1733C25.1856 32.511 24.9111 32.7221 24.5733 32.8066C24.2356 32.891 23.8978 32.8488 23.56 32.6799L21.0267 31.1599C20.7733 31.0755 20.52 31.1177 20.2667 31.2866C20.0133 30.8644 19.6545 30.5477 19.19 30.3366C18.7256 30.1255 18.24 30.1044 17.7333 30.2733V30.1466C17.5645 29.5555 17.2056 29.1121 16.6567 28.8166C16.1078 28.521 15.5378 28.4577 14.9467 28.6266H14.82V28.4999C14.6511 27.9088 14.2922 27.4655 13.7433 27.1699C13.1945 26.8744 12.6245 26.7688 12.0333 26.8533L11.9067 26.9799C11.8222 26.4733 11.6111 26.0721 11.2733 25.7766C10.9356 25.481 10.5345 25.291 10.07 25.2066C9.60557 25.1221 9.16224 25.1855 8.74002 25.3966C8.31779 25.6077 7.98001 25.9244 7.72668 26.3466C7.3889 25.7555 6.96668 25.2488 6.46001 24.8266L11.6533 15.8333C13.0045 15.6644 14.5667 15.8755 16.34 16.4666L15.3267 20.1399C15.1578 20.6466 15.1156 21.1533 15.2 21.6599C15.2845 22.1666 15.4956 22.6521 15.8333 23.1166C16.1711 23.581 16.5089 23.8133 16.8467 23.8133C17.1845 23.8133 17.5222 23.5599 17.86 23.0533L17.9867 22.9266C18.4933 22.251 18.9156 21.5333 19.2533 20.7733C19.8445 19.8444 20.2245 19.3377 20.3933 19.2533L21.1533 19.1266L28.7533 23.5599C29.0911 23.7288 29.3233 24.0033 29.45 24.3833C29.5767 24.7633 29.5133 25.1221 29.26 25.4599ZM30.6533 24.1933C30.4 23.4333 29.9778 22.8844 29.3867 22.5466L21.5333 17.9866C21.3645 17.9021 21.1956 17.8599 21.0267 17.8599L20.14 18.1133C19.8022 18.1977 19.5067 18.4088 19.2533 18.7466C19 19.0844 18.6622 19.591 18.24 20.2666C17.9022 20.9421 17.48 21.6177 16.9733 22.2933L16.8467 22.5466C16.5933 22.1244 16.4456 21.7655 16.4033 21.4699C16.3611 21.1744 16.3822 20.8577 16.4667 20.5199L17.3533 17.0999C17.4378 16.931 17.5222 16.7621 17.6067 16.5933H17.7333C17.9022 16.4244 18.0711 16.2977 18.24 16.2133L19.1267 15.9599C20.0556 15.4533 21.28 15.1155 22.8 14.9466C24.0667 14.7777 25.2911 14.6933 26.4733 14.6933L31.4133 23.4333L30.6533 24.1933ZM32.5533 22.9266L27.6133 14.3133L31.16 12.2866L36.1 20.8999L32.5533 22.9266ZM15.58 11.6533C15.7489 11.6533 15.8756 11.5899 15.96 11.4633C16.0445 11.3366 16.0867 11.1888 16.0867 11.0199V7.09325C16.0867 6.92436 16.0445 6.77658 15.96 6.64992C15.8756 6.52325 15.7489 6.45992 15.58 6.45992H11.5267C11.3578 6.45992 11.2311 6.52325 11.1467 6.64992C11.0622 6.77658 11.02 6.92436 11.02 7.09325V11.0199C11.02 11.1888 11.0622 11.3366 11.1467 11.4633C11.2311 11.5899 11.3578 11.6533 11.5267 11.6533H15.58ZM12.16 7.59992H14.9467V10.3866H12.16V7.59992ZM14.6933 8.86658L13.8067 10.0066C13.6378 10.091 13.4689 10.1333 13.3 10.1333C13.1311 10.1333 13.0045 10.091 12.92 10.0066L12.4133 9.49992C12.3289 9.41547 12.2867 9.28881 12.2867 9.11992C12.2867 8.95103 12.35 8.80325 12.4767 8.67658C12.6033 8.54992 12.7511 8.48658 12.92 8.48658C13.0889 8.48658 13.2156 8.52881 13.3 8.61325V8.73992L13.8067 8.10658C13.9756 7.9377 14.1656 7.87436 14.3767 7.91658C14.5878 7.95881 14.7356 8.08547 14.82 8.29659C14.9045 8.5077 14.8622 8.69769 14.6933 8.86658ZM17.86 11.2733C17.86 11.1044 17.9233 10.9566 18.05 10.8299C18.1767 10.7033 18.3245 10.6399 18.4933 10.6399H26.4733C26.6422 10.6399 26.7689 10.7033 26.8533 10.8299C26.9378 10.9566 26.98 11.1044 26.98 11.2733C26.98 11.4421 26.9378 11.5899 26.8533 11.7166C26.7689 11.8433 26.6422 11.9066 26.4733 11.9066H18.4933C18.3245 11.9066 18.1767 11.8433 18.05 11.7166C17.9233 11.5899 17.86 11.4421 17.86 11.2733ZM17.86 7.09325C17.86 6.92436 17.9233 6.77658 18.05 6.64992C18.1767 6.52325 18.3245 6.45992 18.4933 6.45992H22.1667C22.3356 6.45992 22.4833 6.52325 22.61 6.64992C22.7367 6.77658 22.8 6.92436 22.8 7.09325C22.8 7.26214 22.7367 7.38881 22.61 7.47325C22.4833 7.5577 22.3356 7.59992 22.1667 7.59992H18.4933C18.3245 7.59992 18.1767 7.5577 18.05 7.47325C17.9233 7.38881 17.86 7.26214 17.86 7.09325ZM17.86 9.11992C17.86 8.95103 17.9233 8.82436 18.05 8.73992C18.1767 8.65547 18.3245 8.61325 18.4933 8.61325H23.6867C23.8556 8.61325 24.0033 8.65547 24.13 8.73992C24.2567 8.82436 24.32 8.95103 24.32 9.11992C24.32 9.28881 24.2567 9.43658 24.13 9.56325C24.0033 9.68992 23.8556 9.75325 23.6867 9.75325H18.4933C18.3245 9.75325 18.1767 9.68992 18.05 9.56325C17.9233 9.43658 17.86 9.28881 17.86 9.11992Z" fill="#0E2A46"/>
</svg>
