<svg width="38" height="38" viewBox="0 0 38 38" fill="none" xmlns="http://www.w3.org/2000/svg">
<path d="M36.86 6.33309H34.0733V4.93976C34.0733 4.77087 34.01 4.62309 33.8833 4.49643C33.7567 4.36976 33.6089 4.30643 33.44 4.30643C30.6533 4.30643 28.3733 4.43309 26.6 4.68643C25.1644 4.85531 23.5178 5.19309 21.66 5.69976V5.57309C21.66 4.81309 21.4067 4.17976 20.9 3.67309C20.3933 3.16643 19.76 2.91309 19 2.91309C18.24 2.91309 17.6067 3.16643 17.1 3.67309C16.5933 4.17976 16.34 4.81309 16.34 5.57309V5.69976C14.4822 5.19309 12.8356 4.85531 11.4 4.68643C9.62666 4.43309 7.34666 4.30643 4.56 4.30643C4.39111 4.30643 4.24333 4.36976 4.11666 4.49643C3.99 4.62309 3.92666 4.77087 3.92666 4.93976V6.33309H1.14C0.971109 6.33309 0.844442 6.39643 0.759998 6.52309C0.675554 6.64976 0.633331 6.79754 0.633331 6.96643V32.5531C0.633331 32.722 0.675554 32.8698 0.759998 32.9964C0.844442 33.1231 0.971109 33.1864 1.14 33.1864H15.8333C15.8333 33.7775 16.0233 34.242 16.4033 34.5798C16.7833 34.9175 17.2267 35.0864 17.7333 35.0864H20.2667C20.8578 35.0864 21.3222 34.9175 21.66 34.5798C21.9978 34.242 22.1667 33.7775 22.1667 33.1864H36.86C37.0289 33.1864 37.1556 33.1231 37.24 32.9964C37.3244 32.8698 37.3667 32.722 37.3667 32.5531V6.96643C37.3667 6.79754 37.3244 6.64976 37.24 6.52309C37.1556 6.39643 37.0289 6.33309 36.86 6.33309ZM32.9333 5.44643V29.1331C27.1911 29.1331 22.7578 29.8931 19.6333 31.4131V23.5598H31.16C31.4133 23.5598 31.5822 23.4964 31.6667 23.3698C31.7511 23.2431 31.7933 23.0953 31.7933 22.9264C31.7089 21.9975 31.4133 21.1953 30.9067 20.5198C30.4 19.8442 29.7667 19.3375 29.0067 18.9998C29.5133 18.4931 29.7667 17.8809 29.7667 17.1631C29.7667 16.4453 29.5133 15.812 29.0067 15.2631C28.5 14.7142 27.8667 14.4398 27.1067 14.4398L26.6 14.5664C26.0933 13.9753 25.5022 13.5531 24.8267 13.2998C25.4178 12.7086 25.7133 12.0542 25.7133 11.3364C25.7133 10.6186 25.4389 9.98532 24.89 9.43643C24.3411 8.88754 23.6867 8.61309 22.9267 8.61309L22.5467 8.73976C22.1244 8.14865 21.5756 7.72643 20.9 7.47309L21.28 6.96643C23.3067 6.45976 24.9533 6.07976 26.22 5.82643C27.9933 5.65754 30.2311 5.53087 32.9333 5.44643ZM14.6933 21.0264C14.1867 20.0975 13.4689 19.422 12.54 18.9998C12.8778 18.662 13.0889 18.2398 13.1733 17.7331H16.2133C16.2978 18.2398 16.5511 18.662 16.9733 18.9998C15.96 19.422 15.2 20.0975 14.6933 21.0264ZM9.12 17.0998C9.12 16.6775 9.26778 16.3398 9.56333 16.0864C9.85889 15.8331 10.2178 15.7064 10.64 15.7064C11.0622 15.7064 11.4211 15.8331 11.7167 16.0864C12.0122 16.3398 12.16 16.6775 12.16 17.0998C12.16 17.522 12.0122 17.8809 11.7167 18.1764C11.4211 18.472 11.0622 18.6198 10.64 18.6198C10.2178 18.6198 9.85889 18.472 9.56333 18.1764C9.26778 17.8809 9.12 17.522 9.12 17.0998ZM13.1733 11.3998C13.1733 10.9775 13.3211 10.6186 13.6167 10.3231C13.9122 10.0275 14.2711 9.87976 14.6933 9.87976C15.1156 9.87976 15.4744 10.0275 15.77 10.3231C16.0656 10.6186 16.2133 10.9775 16.2133 11.3998C16.2133 11.822 16.0656 12.1598 15.77 12.4131C15.4744 12.6664 15.1156 12.7931 14.6933 12.7931C14.2711 12.7931 13.9122 12.6664 13.6167 12.4131C13.3211 12.1598 13.1733 11.822 13.1733 11.3998ZM19 8.23309C19.9289 8.23309 20.7311 8.52865 21.4067 9.11976C20.8156 9.54198 20.4778 10.0909 20.3933 10.7664H17.3533C17.1844 10.1753 16.8889 9.66865 16.4667 9.24643C17.1422 8.57087 17.9867 8.23309 19 8.23309ZM22.9267 21.0264C22.42 20.0975 21.7022 19.422 20.7733 18.9998C21.1111 18.662 21.3644 18.2398 21.5333 17.7331H24.4467C24.6156 18.2398 24.8689 18.662 25.2067 18.9998C24.1933 19.422 23.4333 20.0975 22.9267 21.0264ZM18.8733 18.6198C18.4511 18.6198 18.0922 18.472 17.7967 18.1764C17.5011 17.8809 17.3533 17.522 17.3533 17.0998C17.3533 16.6775 17.5011 16.3398 17.7967 16.0864C18.0922 15.8331 18.4511 15.7064 18.8733 15.7064C19.2956 15.7064 19.6544 15.8331 19.95 16.0864C20.2456 16.3398 20.3933 16.6775 20.3933 17.0998C20.3933 17.522 20.2456 17.8809 19.95 18.1764C19.6544 18.472 19.2956 18.6198 18.8733 18.6198ZM16.5933 13.2998C17.0156 12.8775 17.2689 12.4131 17.3533 11.9064H18.3667V14.4398V14.5664C17.86 13.9753 17.2689 13.5531 16.5933 13.2998ZM20.3933 11.9064C20.4778 12.4131 20.6889 12.8775 21.0267 13.2998C20.52 13.5531 20.0556 13.8909 19.6333 14.3131V11.9064H20.3933ZM27.1067 19.8864C27.8667 19.8864 28.5633 20.1186 29.1967 20.5831C29.83 21.0475 30.2733 21.6175 30.5267 22.2931H23.6867C23.94 21.6175 24.3833 21.0475 25.0167 20.5831C25.65 20.1186 26.3467 19.8864 27.1067 19.8864ZM27.1067 18.6198C26.6844 18.6198 26.3256 18.472 26.03 18.1764C25.7344 17.8809 25.5867 17.522 25.5867 17.0998C25.5867 16.6775 25.7344 16.3398 26.03 16.0864C26.3256 15.8331 26.6844 15.7064 27.1067 15.7064C27.5289 15.7064 27.8878 15.8331 28.1833 16.0864C28.4789 16.3398 28.6267 16.6775 28.6267 17.0998C28.6267 17.522 28.4789 17.8809 28.1833 18.1764C27.8878 18.472 27.5289 18.6198 27.1067 18.6198ZM24.4467 16.5931H21.5333C21.3644 15.9175 21.0267 15.4109 20.52 15.0731C21.1956 14.3975 22.0189 14.0598 22.99 14.0598C23.9611 14.0598 24.7844 14.3975 25.46 15.0731C24.9533 15.4109 24.6156 15.9175 24.4467 16.5931ZM22.9267 12.7931C22.5044 12.7931 22.1456 12.6664 21.85 12.4131C21.5544 12.1598 21.4067 11.822 21.4067 11.3998C21.4067 10.9775 21.5544 10.6186 21.85 10.3231C22.1456 10.0275 22.5044 9.87976 22.9267 9.87976C23.3489 9.87976 23.7078 10.0275 24.0033 10.3231C24.2989 10.6186 24.4467 10.9775 24.4467 11.3998C24.4467 11.822 24.2989 12.1598 24.0033 12.4131C23.7078 12.6664 23.3489 12.7931 22.9267 12.7931ZM17.2267 15.0731C16.72 15.4109 16.3822 15.9175 16.2133 16.5931H13.1733C13.0889 15.9175 12.7933 15.4109 12.2867 15.0731C12.9622 14.3975 13.7856 14.0598 14.7567 14.0598C15.7278 14.0598 16.5511 14.3975 17.2267 15.0731ZM10.64 19.8864C11.4 19.8864 12.0967 20.1186 12.73 20.5831C13.3633 21.0475 13.8067 21.6175 14.06 22.2931H7.22C7.47333 21.6175 7.89555 21.0475 8.48666 20.5831C9.07778 20.1186 9.79555 19.8864 10.64 19.8864ZM18.8733 19.8864C19.6333 19.8864 20.33 20.1186 20.9633 20.5831C21.5967 21.0475 22.04 21.6175 22.2933 22.2931H15.4533C15.7067 21.6175 16.1289 21.0475 16.72 20.5831C17.3111 20.1186 18.0289 19.8864 18.8733 19.8864ZM19 4.05309C19.4222 4.05309 19.7811 4.20087 20.0767 4.49643C20.3722 4.79198 20.52 5.15087 20.52 5.57309C20.52 5.99532 20.3722 6.3542 20.0767 6.64976C19.7811 6.94531 19.4222 7.09309 19 7.09309C18.5778 7.09309 18.2189 6.94531 17.9233 6.64976C17.6278 6.3542 17.48 5.99532 17.48 5.57309C17.48 5.15087 17.6278 4.79198 17.9233 4.49643C18.2189 4.20087 18.5778 4.05309 19 4.05309ZM5.06666 5.44643C7.76889 5.53087 10.0067 5.65754 11.78 5.82643C13.0467 6.07976 14.6933 6.45976 16.72 6.96643L17.1 7.47309C16.4244 7.72643 15.8333 8.14865 15.3267 8.73976C15.1578 8.65532 14.9467 8.61309 14.6933 8.61309C13.9333 8.61309 13.3 8.88754 12.7933 9.43643C12.2867 9.98532 12.0333 10.6186 12.0333 11.3364C12.0333 12.0542 12.2867 12.7086 12.7933 13.2998C12.1178 13.5531 11.5689 13.9753 11.1467 14.5664L10.64 14.4398C9.88 14.4398 9.22555 14.7142 8.67666 15.2631C8.12778 15.812 7.85333 16.4453 7.85333 17.1631C7.85333 17.8809 8.14889 18.4931 8.74 18.9998C7.98 19.3375 7.34666 19.8442 6.84 20.5198C6.33333 21.1953 5.99555 21.9975 5.82666 22.9264C5.82666 23.0953 5.89 23.2431 6.01666 23.3698C6.14333 23.4964 6.29111 23.5598 6.46 23.5598H18.3667V31.4131C15.2422 29.8931 10.8089 29.1331 5.06666 29.1331V5.44643ZM36.2267 32.0464H21.66C21.4911 32.0464 21.3433 32.1098 21.2167 32.2364C21.09 32.3631 21.0267 32.4686 21.0267 32.5531V33.1864C21.0267 33.4398 20.9633 33.6298 20.8367 33.7564C20.71 33.8831 20.52 33.9464 20.2667 33.9464H17.7333C17.5644 33.9464 17.3956 33.8831 17.2267 33.7564C17.0578 33.6298 16.9733 33.4398 16.9733 33.1864V32.5531C16.9733 32.4686 16.91 32.3631 16.7833 32.2364C16.6567 32.1098 16.5511 32.0464 16.4667 32.0464H1.77333V7.59976H3.92666V29.6398C3.92666 29.8086 3.99 29.9564 4.11666 30.0831C4.24333 30.2098 4.39111 30.2731 4.56 30.2731C10.8933 30.2731 15.6222 31.1598 18.7467 32.9331C18.8311 33.0175 18.9156 33.0598 19 33.0598C19.0844 33.0598 19.1689 33.0175 19.2533 32.9331C22.3778 31.1598 27.1067 30.2731 33.44 30.2731C33.6089 30.2731 33.7567 30.2098 33.8833 30.0831C34.01 29.9564 34.0733 29.8086 34.0733 29.6398V7.59976H36.2267V32.0464ZM31.0333 25.5864C31.0333 25.7553 30.97 25.9031 30.8433 26.0298C30.7167 26.1564 30.5689 26.2198 30.4 26.2198C27.1911 26.3886 24.4889 26.8109 22.2933 27.4864H22.04C21.7867 27.4864 21.6178 27.3809 21.5333 27.1698C21.4489 26.9586 21.4489 26.7898 21.5333 26.6631C21.6178 26.5364 21.7444 26.4309 21.9133 26.3464C24.2778 25.6709 27.1067 25.2486 30.4 25.0798C30.5689 25.0798 30.6956 25.122 30.78 25.2064C30.8644 25.2909 30.9489 25.4175 31.0333 25.5864ZM16.4667 27.1064C16.3822 27.3598 16.2133 27.4864 15.96 27.4864H15.7067C13.5111 26.8109 10.8089 26.3886 7.6 26.2198C7.43111 26.2198 7.28333 26.1564 7.15666 26.0298C7.03 25.9031 6.98778 25.7553 7.03 25.5864C7.07222 25.4175 7.13555 25.2909 7.22 25.2064C7.30444 25.122 7.43111 25.0798 7.6 25.0798C10.8933 25.2486 13.7222 25.6709 16.0867 26.3464C16.2556 26.4309 16.3822 26.5364 16.4667 26.6631C16.5511 26.7898 16.5511 26.9375 16.4667 27.1064Z" fill="#0E2A46"/>
</svg>
