<svg width="38" height="38" viewBox="0 0 38 38" fill="none" xmlns="http://www.w3.org/2000/svg">
<g clip-path="url(#clip0_2_701)">
<path d="M32.68 35.34C32.1733 32.8067 31.7089 30.4844 31.2867 28.3733L31.0333 27.2333C30.78 26.0511 30.1467 25.2067 29.1333 24.7C28.88 24.5311 28.6267 24.4044 28.3733 24.32L24.0667 22.8L22.6733 21.9133V20.7733C23.6867 20.1822 24.4889 19.4011 25.08 18.43C25.6711 17.4589 26.0511 16.4244 26.22 15.3267C27.0645 15.3267 27.7189 15.01 28.1833 14.3767C28.6478 13.7433 28.7111 13.0467 28.3733 12.2867V7.85333C28.3733 6.41778 28.0356 5.23556 27.36 4.30667C27.0222 3.8 26.5578 3.42 25.9667 3.16667C24.7 1.56222 22.9689 0.57 20.7733 0.189999C18.5778 -0.189999 16.5089 0.084446 14.5667 1.01333C13.9756 1.35111 13.3845 1.77333 12.7933 2.28C12.7089 2.36444 12.6456 2.49111 12.6033 2.66C12.5611 2.82889 12.6033 2.95555 12.73 3.04C12.8567 3.12444 12.9833 3.18778 13.11 3.23C13.2367 3.27222 13.3845 3.20889 13.5533 3.04C14.7356 2.11111 16.0867 1.52 17.6067 1.26667C19.1267 1.01333 20.5622 1.14 21.9133 1.64667C23.2645 2.15334 24.3622 2.91333 25.2067 3.92667C25.2911 4.01111 25.3756 4.05333 25.46 4.05333C25.7978 4.22222 26.0933 4.47556 26.3467 4.81334C26.9378 5.57333 27.2333 6.58667 27.2333 7.85333V11.2733C26.8956 11.1889 26.5578 11.1467 26.22 11.1467V9.24667C26.22 9.07778 26.1356 8.90889 25.9667 8.74C25.7978 8.57111 25.6289 8.44444 25.46 8.36C24.7 8.36 24.1089 7.98 23.6867 7.22C23.5178 6.88222 23.2645 6.69222 22.9267 6.65C22.5889 6.60778 22.2933 6.71333 22.04 6.96667C20.8578 7.89556 19.5489 8.48667 18.1133 8.74C17.0156 8.99333 15.8756 9.03556 14.6933 8.86667C13.9333 8.78222 13.2578 8.95111 12.6667 9.37333C12.0756 9.79556 11.7378 10.3867 11.6533 11.1467C11.2311 11.1467 10.8511 11.1889 10.5133 11.2733V10.64C10.5133 9.45778 10.5556 8.57111 10.64 7.98C10.8933 6.88222 11.3156 5.86889 11.9067 4.94C11.9911 4.77111 12.0122 4.62333 11.97 4.49667C11.9278 4.37 11.8433 4.26445 11.7167 4.18C11.59 4.09555 11.4633 4.07444 11.3367 4.11667C11.21 4.15889 11.1045 4.22222 11.02 4.30667C10.26 5.40445 9.79556 6.58667 9.62667 7.85333C9.45779 8.61333 9.41556 9.62667 9.50001 10.8933L9.37334 12.2867C9.03556 13.0467 9.12001 13.7433 9.62667 14.3767C10.1333 15.01 10.8089 15.3267 11.6533 15.3267C11.8222 16.9311 12.4556 18.3244 13.5533 19.5067L13.68 19.6333C14.1867 20.14 14.7356 20.5622 15.3267 20.9V21.9133L13.9333 22.8L10.8933 23.94C9.62667 24.3622 8.9089 24.6156 8.74001 24.7L8.61334 24.8267C7.7689 25.3333 7.22001 26.0511 6.96667 26.98L5.32001 35.34C5.32001 35.5933 5.32001 35.8467 5.32001 36.1C5.40445 36.6911 5.63667 37.1556 6.01667 37.4933C6.39667 37.8311 6.92445 38 7.60001 38H22.9267C23.0956 38 23.2222 37.9367 23.3067 37.81C23.3911 37.6833 23.4333 37.5567 23.4333 37.43C23.4333 37.3033 23.3911 37.1767 23.3067 37.05C23.2222 36.9233 23.0956 36.86 22.9267 36.86H11.5267V31.7933C11.5267 31.6244 11.4633 31.4978 11.3367 31.4133C11.21 31.3289 11.0833 31.2867 10.9567 31.2867C10.83 31.2867 10.7033 31.3289 10.5767 31.4133C10.45 31.4978 10.3867 31.6244 10.3867 31.7933V36.86H7.60001C6.67112 36.86 6.29112 36.4378 6.46001 35.5933L7.72667 29.0067C7.98001 27.8244 8.1489 27.1489 8.23334 26.98V26.8533C8.48667 26.2622 8.95112 25.7978 9.62667 25.46L12.0333 24.7L13.4267 27.1067C13.4267 27.2756 13.5111 27.3811 13.68 27.4233C13.8489 27.4656 13.9967 27.4444 14.1233 27.36C14.25 27.2756 14.3345 27.17 14.3767 27.0433C14.4189 26.9167 14.3978 26.7689 14.3133 26.6L13.0467 24.32L13.9333 24.0667L18.3667 32.3C18.5356 32.4689 18.7467 32.5533 19 32.5533C19.2533 32.5533 19.4222 32.4689 19.5067 32.3L24.0667 24.0667L24.9533 24.32L20.3933 32.68C20.0556 33.1867 19.5911 33.44 19 33.44C18.4089 33.44 17.9445 33.1867 17.6067 32.68L15.58 28.88C15.4956 28.7956 15.39 28.7322 15.2633 28.69C15.1367 28.6478 14.9889 28.6478 14.82 28.69C14.6511 28.7322 14.5456 28.8378 14.5033 29.0067C14.4611 29.1756 14.4822 29.3022 14.5667 29.3867L16.5933 33.1867C16.9311 33.7778 17.4167 34.1789 18.05 34.39C18.6833 34.6011 19.3167 34.6011 19.95 34.39C20.5833 34.1789 21.0689 33.7778 21.4067 33.1867L25.9667 24.7L28.12 25.46L29.0067 25.84C29.4289 26.2622 29.7245 26.7267 29.8933 27.2333L31.54 35.8467C31.6245 36.5222 31.2445 36.86 30.4 36.86H27.6133V31.7933C27.6133 31.6244 27.55 31.4978 27.4233 31.4133C27.2967 31.3289 27.17 31.2867 27.0433 31.2867C26.9167 31.2867 26.79 31.3289 26.6633 31.4133C26.5367 31.4978 26.4733 31.6244 26.4733 31.7933V36.86H25.46C25.2911 36.86 25.1645 36.9233 25.08 37.05C24.9956 37.1767 24.9533 37.3033 24.9533 37.43C24.9533 37.5567 24.9956 37.6833 25.08 37.81C25.1645 37.9367 25.2911 38 25.46 38H30.4C31.0756 38 31.6033 37.8311 31.9833 37.4933C32.3633 37.1556 32.5956 36.6911 32.68 36.1C32.68 35.8467 32.68 35.5933 32.68 35.34ZM26.22 12.2867C26.5578 12.2022 26.8533 12.2656 27.1067 12.4767C27.36 12.6878 27.4867 12.9411 27.4867 13.2367C27.4867 13.5322 27.36 13.7644 27.1067 13.9333C26.8533 14.1022 26.5578 14.1867 26.22 14.1867V12.2867ZM11.5267 14.1867C11.1889 14.1867 10.9145 14.1022 10.7033 13.9333C10.4922 13.7644 10.3867 13.5322 10.3867 13.2367C10.3867 12.9411 10.4922 12.6878 10.7033 12.4767C10.9145 12.2656 11.1889 12.2022 11.5267 12.2867V14.1867ZM14.5667 10.0067C15.9178 10.1756 17.1845 10.1333 18.3667 9.88C19.9711 9.54222 21.4067 8.82445 22.6733 7.72667C23.2645 8.74 24.0667 9.33111 25.08 9.5V11.5267L24.4467 11.9067C24.1933 11.4844 23.8133 11.2733 23.3067 11.2733H20.7733C20.4356 11.2733 20.1611 11.3367 19.95 11.4633C19.7389 11.59 19.5489 11.8222 19.38 12.16H18.3667C18.2822 11.8222 18.1133 11.59 17.86 11.4633C17.6067 11.3367 17.3533 11.2733 17.1 11.2733H14.44C13.9333 11.2733 13.5533 11.4844 13.3 11.9067L12.6667 11.5267C12.6667 11.02 12.8567 10.6189 13.2367 10.3233C13.6167 10.0278 14.06 9.92222 14.5667 10.0067ZM23.6867 12.6667V13.8067C23.6867 14.06 23.6022 14.2711 23.4333 14.44C23.2645 14.6089 23.0533 14.6933 22.8 14.6933H21.28C21.0267 14.6933 20.8156 14.6089 20.6467 14.44C20.4778 14.2711 20.3933 14.06 20.3933 13.8067V12.6667C20.3933 12.4133 20.52 12.2867 20.7733 12.2867H23.3067C23.56 12.2867 23.6867 12.4133 23.6867 12.6667ZM17.3533 12.6667V13.8067C17.3533 14.06 17.2689 14.2711 17.1 14.44C16.9311 14.6089 16.72 14.6933 16.4667 14.6933H15.0733C14.82 14.6933 14.6089 14.6089 14.44 14.44C14.2711 14.2711 14.1867 14.06 14.1867 13.8067V12.6667C14.1867 12.4133 14.2711 12.2867 14.44 12.2867H17.1C17.2689 12.2867 17.3533 12.4133 17.3533 12.6667ZM14.1867 18.62C13.5111 17.7756 13.0467 16.8889 12.7933 15.96C12.7089 15.3689 12.6667 14.5667 12.6667 13.5533V12.7933L13.0467 13.0467V13.8067C13.0467 14.3133 13.2367 14.7567 13.6167 15.1367C13.9967 15.5167 14.4822 15.7067 15.0733 15.7067H16.4667C17.0578 15.7067 17.5433 15.5167 17.9233 15.1367C18.3033 14.7567 18.4933 14.3133 18.4933 13.8067V13.1733H19.2533V13.8067C19.2533 14.3133 19.4645 14.7567 19.8867 15.1367C20.3089 15.5167 20.7733 15.7067 21.28 15.7067H22.8C23.3067 15.7067 23.75 15.5167 24.13 15.1367C24.51 14.7567 24.7 14.3133 24.7 13.8067V13.0467L25.08 12.7933V14.44C25.08 16.1289 24.4889 17.5856 23.3067 18.81C22.1245 20.0344 20.6467 20.6889 18.8733 20.7733C18.4511 20.7733 18.0289 20.7311 17.6067 20.6467L17.2267 20.52C16.0445 20.1822 15.0311 19.5489 14.1867 18.62ZM19 24.8267L16.4667 21.9133V21.4067C17.6489 21.8289 18.8311 21.9556 20.0133 21.7867L20.7733 21.5333L21.5333 21.4067V21.9133L19 24.8267ZM19.6333 26.7267L19.38 27.2333H18.62L18.3667 26.7267L19 26.3467L19.6333 26.7267ZM17.48 28.2467L17.2267 27.6133L17.48 27.4867L17.7333 27.8667L17.48 28.2467ZM16.5933 26.6L14.9467 23.56L15.8333 22.9267L18.1133 25.5867L16.5933 26.6ZM19 31.0333L18.24 29.64L18.62 28.3733H19.38L19.76 29.64L19 31.0333ZM20.52 28.2467L20.2667 27.8667L20.52 27.4867L20.7733 27.6133L20.52 28.2467ZM21.4067 26.6C20.9845 26.3467 20.4778 26.0089 19.8867 25.5867L22.1667 22.9267L23.0533 23.56L21.4067 26.6Z" fill="#0E2A46"/>
</g>
<defs>
<clipPath id="clip0_2_701">
<rect width="38" height="38" fill="white" transform="matrix(1 0 0 -1 0 38)"/>
</clipPath>
</defs>
</svg>
