<svg width="38" height="38" viewBox="0 0 38 38" fill="none" xmlns="http://www.w3.org/2000/svg">
<path d="M31.54 23.94C31.9622 23.4334 32.3 22.8423 32.5533 22.1667C32.8067 21.4911 32.9333 20.8156 32.9333 20.14C32.9333 19.0423 32.5533 18.1134 31.7933 17.3534C31.0333 16.5934 30.1044 16.2134 29.0067 16.2134C27.9089 16.2134 26.98 16.5934 26.22 17.3534C25.46 18.1134 25.08 19.0634 25.08 20.2034C25.08 21.3434 25.3756 22.3778 25.9667 23.3067L26.3467 23.94C25.4178 23.94 24.5733 24.2356 23.8133 24.8267C23.4756 24.7423 23.1378 24.7 22.8 24.7H22.1667C22.5889 24.3623 22.9267 23.94 23.18 23.4334C24.0244 22.0823 24.4467 20.52 24.4467 18.7467C24.4467 17.8178 24.2144 16.9311 23.75 16.0867C23.2856 15.2423 22.6311 14.5667 21.7867 14.06C20.9422 13.5534 20.0133 13.3 19 13.3C17.9867 13.3 17.0578 13.5534 16.2133 14.06C15.3689 14.5667 14.7144 15.2423 14.25 16.0867C13.7856 16.9311 13.5533 17.8178 13.5533 18.7467C13.5533 20.52 13.9756 22.0823 14.82 23.4334C15.0733 23.8556 15.4111 24.2778 15.8333 24.7H15.2C14.8622 24.7 14.5244 24.7423 14.1867 24.8267C13.4267 24.2356 12.5822 23.94 11.6533 23.94L12.0333 23.3067C12.6244 22.3778 12.92 21.3434 12.92 20.2034C12.92 19.0634 12.54 18.1134 11.78 17.3534C11.02 16.5934 10.0911 16.2134 8.99333 16.2134C7.89556 16.2134 6.96667 16.5934 6.20667 17.3534C5.44667 18.1134 5.06667 19.0423 5.06667 20.14C5.06667 20.8156 5.19333 21.4911 5.44667 22.1667C5.7 22.8423 6.03778 23.4334 6.46 23.94C5.27778 23.94 4.28556 24.32 3.48333 25.08C2.68111 25.84 2.28 26.7689 2.28 27.8667V32.4267C2.28 32.5956 2.32222 32.7434 2.40667 32.87C2.49111 32.9967 2.61778 33.06 2.78667 33.06H9.37333V36.86C9.37333 37.0289 9.43667 37.1556 9.56333 37.24C9.69 37.3245 9.83778 37.3667 10.0067 37.3667H27.9933C28.1622 37.3667 28.31 37.3245 28.4367 37.24C28.5633 37.1556 28.6267 37.0289 28.6267 36.86V33.06H35.2133C35.3822 33.06 35.5089 32.9967 35.5933 32.87C35.6778 32.7434 35.72 32.5956 35.72 32.4267V27.8667C35.72 26.7689 35.3189 25.84 34.5167 25.08C33.7144 24.32 32.7222 23.94 31.54 23.94ZM26.22 20.14C26.22 19.38 26.4944 18.7256 27.0433 18.1767C27.5922 17.6278 28.2467 17.3534 29.0067 17.3534C29.7667 17.3534 30.4211 17.6278 30.97 18.1767C31.5189 18.7256 31.7933 19.4223 31.7933 20.2667C31.7933 21.1111 31.5822 21.8711 31.16 22.5467C30.6533 23.4756 29.9356 23.94 29.0067 23.94C28.0778 23.94 27.36 23.4756 26.8533 22.5467C26.4311 21.8711 26.22 21.0689 26.22 20.14ZM19 14.5667C20.1822 14.5667 21.1956 14.9678 22.04 15.77C22.8844 16.5723 23.3067 17.5645 23.3067 18.7467V18.8734C22.3778 18.7889 21.5756 18.62 20.9 18.3667C20.0556 18.0289 19.1689 17.5223 18.24 16.8467C18.0711 16.6778 17.86 16.6778 17.6067 16.8467L14.6933 18.4934C14.7778 17.3956 15.2422 16.4667 16.0867 15.7067C16.9311 14.9467 17.9022 14.5667 19 14.5667ZM15.8333 22.8C15.3267 21.9556 14.9889 20.9845 14.82 19.8867L17.86 17.9867C18.7889 18.6623 19.7178 19.1689 20.6467 19.5067C21.3222 19.76 22.1667 19.9711 23.18 20.14C23.0111 21.1534 22.6733 22.04 22.1667 22.8C21.4067 24.0667 20.3511 24.7 19 24.7C17.6489 24.7 16.5933 24.0667 15.8333 22.8ZM6.20667 20.14C6.20667 19.38 6.48111 18.7256 7.03 18.1767C7.57889 17.6278 8.23333 17.3534 8.99333 17.3534C9.75333 17.3534 10.4078 17.6278 10.9567 18.1767C11.5056 18.7256 11.78 19.4223 11.78 20.2667C11.78 21.1111 11.5689 21.8711 11.1467 22.5467C10.64 23.4756 9.92222 23.94 8.99333 23.94C8.06445 23.94 7.34667 23.4756 6.84 22.5467C6.41778 21.8711 6.20667 21.0689 6.20667 20.14ZM3.42 31.92V27.8667C3.42 27.1067 3.71556 26.4734 4.30667 25.9667C4.89778 25.46 5.61556 25.2067 6.46 25.2067H11.6533C11.9911 25.2067 12.2867 25.2489 12.54 25.3334C11.6111 25.7556 10.8511 26.41 10.26 27.2967C9.66889 28.1834 9.37333 29.1334 9.37333 30.1467V31.92H3.42ZM27.4867 36.2267H24.4467V32.5534C24.4467 32.3845 24.3833 32.2367 24.2567 32.11C24.13 31.9834 23.9822 31.92 23.8133 31.92C23.6444 31.92 23.5178 31.9834 23.4333 32.11C23.3489 32.2367 23.3067 32.3845 23.3067 32.5534V36.2267H14.6933V32.5534C14.6933 32.3845 14.6511 32.2367 14.5667 32.11C14.4822 31.9834 14.3556 31.92 14.1867 31.92C14.0178 31.92 13.87 31.9834 13.7433 32.11C13.6167 32.2367 13.5533 32.3845 13.5533 32.5534V36.2267H10.5133V30.1467C10.5133 28.9645 10.9778 27.9511 11.9067 27.1067C12.8356 26.2623 13.9333 25.84 15.2 25.84H22.8C24.0667 25.84 25.1644 26.2623 26.0933 27.1067C27.0222 27.9511 27.4867 28.9645 27.4867 30.1467V36.2267ZM34.58 31.92H28.6267V30.1467C28.6267 29.1334 28.3311 28.1834 27.74 27.2967C27.1489 26.41 26.3889 25.7556 25.46 25.3334C25.7133 25.2489 26.0089 25.2067 26.3467 25.2067H31.54C32.3844 25.2067 33.1022 25.46 33.6933 25.9667C34.2844 26.4734 34.58 27.1067 34.58 27.8667V31.92ZM15.7067 7.7267L15.2 10.8934C15.2 11.1467 15.2844 11.3367 15.4533 11.4634C15.6222 11.59 15.8333 11.6111 16.0867 11.5267L19 10.0067L21.9133 11.5267C22.1667 11.6111 22.3778 11.59 22.5467 11.4634C22.7156 11.3367 22.8 11.1467 22.8 10.8934L22.2933 7.7267L24.5733 5.32003C24.7422 5.15115 24.7844 4.96114 24.7 4.75003C24.6156 4.53892 24.4467 4.39114 24.1933 4.3067L21.0267 3.80003L19.5067 0.8867C19.4222 0.717812 19.2533 0.633366 19 0.633366C18.7467 0.633366 18.5778 0.717812 18.4933 0.8867L16.9733 3.80003L13.8067 4.3067C13.5533 4.39114 13.3844 4.53892 13.3 4.75003C13.2156 4.96114 13.2578 5.15115 13.4267 5.32003L15.7067 7.7267ZM17.48 4.94003C17.6489 4.85559 17.7756 4.72892 17.86 4.56003L19 2.4067L20.14 4.56003C20.2244 4.72892 20.3511 4.85559 20.52 4.94003L22.9267 5.32003L21.28 7.09337C21.1111 7.17781 21.0267 7.3467 21.0267 7.60003L21.4067 9.88003L19.2533 8.8667C19.0844 8.78226 18.9156 8.78226 18.7467 8.8667L16.5933 9.88003L16.9733 7.60003C16.9733 7.3467 16.8889 7.17781 16.72 7.09337L15.0733 5.32003L17.48 4.94003ZM4.68667 8.61337L4.30667 10.8934C4.30667 11.1467 4.41222 11.3367 4.62333 11.4634C4.83444 11.59 5.02445 11.6111 5.19333 11.5267L7.22 10.5134L9.24667 11.5267C9.41556 11.6111 9.60556 11.59 9.81667 11.4634C10.0278 11.3367 10.1333 11.1467 10.1333 10.8934L9.75333 8.61337L11.2733 7.09337C11.4422 6.92448 11.5056 6.71337 11.4633 6.46003C11.4211 6.2067 11.2733 6.08003 11.02 6.08003L8.74 5.70003L7.72667 3.67337C7.64222 3.50448 7.47333 3.42003 7.22 3.42003C6.96667 3.42003 6.79778 3.50448 6.71333 3.67337L5.7 5.70003L3.42 6.08003C3.16667 6.08003 3.01889 6.2067 2.97667 6.46003C2.93445 6.71337 2.99778 6.92448 3.16667 7.09337L4.68667 8.61337ZM6.08 6.84003C6.33333 6.75559 6.50222 6.62892 6.58667 6.46003L7.22 5.19337L7.85333 6.46003C7.93778 6.62892 8.06445 6.75559 8.23333 6.84003L9.62667 7.09337L8.74 8.1067C8.57111 8.19114 8.48667 8.31781 8.48667 8.4867L8.74 9.88003L7.47333 9.37337C7.30445 9.28892 7.13556 9.28892 6.96667 9.37337L5.7 9.88003L5.95333 8.4867C5.95333 8.31781 5.86889 8.19114 5.7 8.1067L4.81333 7.09337L6.08 6.84003ZM28.2467 8.61337L27.8667 10.8934C27.8667 11.1467 27.9722 11.3367 28.1833 11.4634C28.3944 11.59 28.5844 11.6111 28.7533 11.5267L30.78 10.5134L32.8067 11.5267C32.9756 11.6111 33.1656 11.59 33.3767 11.4634C33.5878 11.3367 33.6933 11.1467 33.6933 10.8934L33.3133 8.61337L34.8333 7.09337C35.0022 6.92448 35.0656 6.71337 35.0233 6.46003C34.9811 6.2067 34.8333 6.08003 34.58 6.08003L32.3 5.70003L31.2867 3.67337C31.2022 3.50448 31.0333 3.42003 30.78 3.42003C30.5267 3.42003 30.3578 3.50448 30.2733 3.67337L29.26 5.70003L26.98 6.08003C26.7267 6.08003 26.5789 6.2067 26.5367 6.46003C26.4944 6.71337 26.5578 6.92448 26.7267 7.09337L28.2467 8.61337ZM29.7667 6.84003C29.9356 6.75559 30.0622 6.62892 30.1467 6.46003L30.78 5.19337L31.4133 6.46003C31.4978 6.62892 31.6667 6.75559 31.92 6.84003L33.1867 7.09337L32.3 8.1067C32.1311 8.19114 32.0467 8.31781 32.0467 8.4867L32.3 9.88003L31.0333 9.37337C30.8644 9.28892 30.6956 9.28892 30.5267 9.37337L29.26 9.88003L29.5133 8.4867C29.5133 8.31781 29.4289 8.19114 29.26 8.1067L28.3733 7.09337L29.7667 6.84003Z" fill="#0E2A46"/>
</svg>
