<svg width="81" height="81" viewBox="0 0 81 81" fill="none" xmlns="http://www.w3.org/2000/svg">
<rect x="1" y="1" width="79" height="79" rx="39.5" fill="#FF6881" fill-opacity="0.15"/>
<rect x="1" y="1" width="79" height="79" rx="39.5" stroke="#FF6881" stroke-dasharray="3 2"/>
<path d="M55.0037 51.3036C55.2154 50.1796 55.21 49.0255 54.9877 47.9036L58.041 40.535C58.0413 40.5301 58.0413 40.5252 58.041 40.5203C58.5358 39.1657 59.2609 37.9068 60.1843 36.799C60.4141 36.5563 60.5065 36.2144 60.4303 35.889L59.1783 30.4824C59.1634 30.4259 59.141 30.3716 59.1117 30.3211C59.1063 30.3111 59.1043 30.2991 59.099 30.2897C59.0937 30.2804 59.0703 30.2577 59.057 30.2404C59.0297 30.2005 58.9982 30.1636 58.963 30.1304C58.9398 30.1141 58.9155 30.0994 58.8903 30.0864C58.8578 30.0625 58.8233 30.0415 58.787 30.0237C58.7368 30.0048 58.6844 29.992 58.631 29.9857C58.6157 29.9857 58.6023 29.9757 58.587 29.9744C58.4592 29.9659 58.3317 29.9944 58.2197 30.0564C58.2097 30.0617 58.1977 30.0637 58.1877 30.0697H58.181L53.4737 33.0077C53.1886 33.1842 53.0117 33.4925 53.003 33.8277C52.8723 35.2671 52.4931 36.673 51.8824 37.983V37.9903L50.3564 41.679C49.6074 41.2808 48.8056 40.9913 47.9751 40.819C48.2895 38.649 48.4051 36.4548 48.3204 34.2637C49.5614 32.7747 50.157 30.8522 49.9751 28.9224C49.5584 25.0371 46.0471 22.2311 45.8971 22.1131C45.6716 21.9356 45.3579 21.9222 45.1182 22.08C44.8785 22.2377 44.7666 22.5312 44.8404 22.8085C45.1838 24.0978 44.8864 25.4584 42.3504 28.2564C41.211 29.3566 40.8499 31.0365 41.4364 32.5077C41.6607 33.0704 41.982 33.5894 42.3858 34.041C42.2244 35.071 42.0978 36.0464 42.0104 36.9964C41.8601 38.5676 41.8213 40.1476 41.8944 41.7243C41.2997 42.0468 40.7429 42.4347 40.2345 42.881L37.0011 29.0544C37.0011 29.0404 36.9878 29.0304 36.9838 29.0177C36.973 28.9733 36.9573 28.9302 36.9371 28.8891L33.6345 22.7898C33.304 22.1793 32.6057 21.8656 31.9298 22.0239C31.2539 22.1822 30.7676 22.7734 30.7425 23.4671L30.4918 30.3971C30.492 30.4471 30.4976 30.4969 30.5085 30.5457C30.5085 30.5564 30.5085 30.5657 30.5085 30.5757L33.8072 44.6536C33.2868 44.6766 32.7702 44.7537 32.2658 44.8836L28.6372 36.1204C28.3462 35.4505 27.5745 35.1344 26.8972 35.4077L21.3512 37.7037C20.6725 37.987 20.3499 38.7653 20.6292 39.4457L25.5505 51.3176C22.6662 51.469 20.4274 53.8903 20.5018 56.7776C20.5763 59.6649 22.9369 61.9676 25.8252 61.9702H55.1584C57.0638 61.9426 58.8097 60.9005 59.7385 59.2366C60.6672 57.5726 60.6378 55.5396 59.6611 53.9033C58.6845 52.267 56.9091 51.276 55.0037 51.3036ZM54.3244 34.0477L57.119 32.3037L56.1297 34.693C55.9887 35.0332 56.1502 35.4233 56.4904 35.5644C56.8306 35.7054 57.2207 35.5439 57.3617 35.2037L58.351 32.8144L59.0917 36.023C58.2992 36.9898 57.6483 38.0643 57.1584 39.2143C56.4633 39.5365 55.6652 39.5532 54.9572 39.2604C54.2493 38.9676 53.6961 38.392 53.4317 37.673C53.8999 36.5131 54.2005 35.2924 54.3244 34.0477ZM52.791 39.2817C53.2321 39.8209 53.8044 40.2376 54.453 40.4917C54.9686 40.7134 55.5231 40.8304 56.0844 40.8357C56.2194 40.8352 56.3543 40.8269 56.4884 40.811L54.361 45.9443C53.724 44.5398 52.7386 43.3215 51.4984 42.405L52.791 39.2817ZM43.6578 34.5204L47.0071 34.725C47.0277 35.3477 47.0204 35.9917 46.9997 36.6457C45.884 36.7254 44.7627 36.6712 43.6598 36.4844C43.5758 36.4724 43.4938 36.463 43.4104 36.4517C43.4771 35.8237 43.5584 35.1877 43.6564 34.5204H43.6578ZM43.3398 29.1517C45.1098 27.1991 46.0271 25.6971 46.2404 24.2851C47.5127 25.5941 48.3525 27.2621 48.6464 29.0637C48.7864 30.6321 48.3015 32.1923 47.2971 33.405C45.9802 33.325 44.6778 33.245 43.3898 33.165C42.8363 32.6477 42.518 31.9269 42.5083 31.1693C42.4986 30.4118 42.7984 29.6831 43.3384 29.1517H43.3398ZM43.2891 37.7803L43.4824 37.8057C44.3415 37.9385 45.2086 38.0123 46.0778 38.0263C46.3538 38.0263 46.6444 38.0043 46.9357 37.9817C46.8751 38.8397 46.7757 39.7357 46.6497 40.6617C46.4851 40.653 46.3238 40.637 46.1584 40.637C45.1519 40.6388 44.1529 40.8108 43.2038 41.1457C43.173 40.0232 43.2011 38.8999 43.2878 37.7803H43.2891ZM38.1325 45.5763L36.2251 37.4517C36.136 37.0992 35.7808 36.8832 35.4268 36.9661C35.0728 37.049 34.8505 37.4003 34.9272 37.7557L36.6411 45.0683C36.1699 44.8998 35.6831 44.7785 35.1878 44.7063L32.2618 32.2197C32.6717 32.4063 33.1168 32.5032 33.5672 32.5037C33.6092 32.5037 33.6538 32.4977 33.6965 32.4957L34.1678 34.5084C34.2186 34.7439 34.3926 34.9338 34.6229 35.0049C34.8531 35.076 35.1038 35.0172 35.2786 34.8513C35.4533 34.6853 35.5249 34.438 35.4658 34.2044L34.9938 32.1904C35.4461 31.9901 35.8451 31.6864 36.1585 31.3037L39.1331 44.023C38.7468 44.5048 38.4115 45.0254 38.1325 45.5763ZM34.0592 31.1097C33.2066 31.2751 32.336 30.9265 31.8332 30.2184L31.9178 27.8704C32.1498 27.9137 32.3852 27.9361 32.6212 27.9371C32.8491 27.938 33.0764 27.9128 33.2985 27.8618C33.7482 27.7436 34.1689 27.5344 34.5345 27.2471L35.6572 29.3191C35.5234 30.1788 34.898 30.8801 34.0592 31.1111V31.1097ZM32.2332 23.3218C32.324 23.3007 32.4177 23.3427 32.4625 23.4244L33.8918 26.0678C33.634 26.301 33.3261 26.4721 32.9918 26.5678C32.6502 26.6305 32.2987 26.6138 31.9645 26.5191L32.0732 23.5151C32.0768 23.422 32.1423 23.3428 32.2332 23.3218ZM27.4085 36.637L27.9179 37.8677L25.4512 38.889C25.1588 39.0118 24.9934 39.3236 25.0557 39.6346C25.1179 39.9456 25.3907 40.1696 25.7079 40.1703C25.7955 40.1701 25.8822 40.1529 25.9632 40.1197L28.4299 39.0977L28.9399 40.3297L27.7059 40.841C27.4118 40.9627 27.2447 41.2753 27.307 41.5875C27.3693 41.8996 27.6436 42.1242 27.9619 42.1237C28.0492 42.1233 28.1357 42.1061 28.2165 42.073L29.4505 41.5617L29.9605 42.7937L27.4919 43.817C27.1978 43.9387 27.0307 44.2513 27.093 44.5635C27.1553 44.8756 27.4296 45.1001 27.7479 45.0996C27.8352 45.0994 27.9217 45.0822 28.0025 45.049L30.4692 44.0276L31.0085 45.3296C28.8361 46.3212 27.2431 48.2601 26.6919 50.5836L21.8599 38.933L27.4085 36.637ZM55.1584 60.6369H25.8252C23.6161 60.6369 21.8252 58.846 21.8252 56.6369C21.8252 54.4278 23.6161 52.6369 25.8252 52.6369C26.2115 52.6356 26.5958 52.6913 26.9659 52.8023C27.1658 52.8626 27.3824 52.8259 27.5512 52.7029C27.72 52.58 27.8214 52.385 27.8252 52.1763C27.8726 49.8003 29.2461 47.6509 31.3823 46.6096C33.5184 45.5684 36.0577 45.8106 37.9585 47.237C38.1264 47.362 38.3434 47.4008 38.5443 47.3418C38.7452 47.2829 38.9067 47.1329 38.9805 46.937C40.2829 43.4658 43.8827 41.424 47.5303 42.0874C51.178 42.7509 53.8283 45.9294 53.825 49.6369C53.8263 50.3994 53.7128 51.1576 53.4884 51.8863C53.4183 52.113 53.474 52.3598 53.6346 52.5344C53.7953 52.7091 54.0366 52.7852 54.2684 52.7343C54.5607 52.6699 54.8591 52.6373 55.1584 52.6369C57.3675 52.6369 59.1583 54.4278 59.1583 56.6369C59.1583 58.846 57.3675 60.6369 55.1584 60.6369Z" fill="#FF6881"/>
<path d="M46.2828 32.4364C46.492 32.4372 46.6895 32.3397 46.8161 32.173C47.6484 31.0466 47.9701 29.6226 47.7028 28.2477C47.6459 28.0127 47.4662 27.8268 47.2331 27.7621C47.0001 27.6974 46.7503 27.764 46.5804 27.9361C46.4105 28.1082 46.3471 28.3589 46.4148 28.5911C46.5744 29.568 46.3362 30.5682 45.7535 31.3684C45.6019 31.5704 45.5776 31.8407 45.6905 32.0665C45.8034 32.2924 46.0343 32.435 46.2868 32.435L46.2828 32.4364Z" fill="#FF6881"/>
<path d="M45.4052 52.6364C44.9094 52.638 44.4205 52.7519 43.9752 52.9698C42.7759 51.3287 40.5366 50.848 38.7695 51.8522C37.0023 52.8564 36.2692 55.0262 37.0652 56.8964C37.17 57.1422 37.4114 57.3018 37.6786 57.3017C37.7684 57.302 37.8573 57.2838 37.9399 57.2484C38.1026 57.1791 38.231 57.048 38.2971 56.884C38.3631 56.72 38.3612 56.5364 38.2919 56.3737C38.1468 56.0355 38.0719 55.6712 38.0719 55.3031C38.0719 53.8303 39.2658 52.6364 40.7385 52.6364C41.7729 52.6313 42.715 53.2307 43.1485 54.1698C43.163 54.1915 43.1785 54.2124 43.1952 54.2324C43.2057 54.2553 43.2175 54.2775 43.2305 54.2991C43.2425 54.3138 43.2599 54.3204 43.2732 54.3344C43.3045 54.3669 43.3391 54.3959 43.3765 54.4211C43.4098 54.4467 43.4456 54.4691 43.4832 54.4878C43.5219 54.504 43.5621 54.5165 43.6032 54.5251C43.6442 54.5359 43.6862 54.5423 43.7285 54.5444C43.8151 54.5437 43.9011 54.5293 43.9832 54.5018C44.001 54.4985 44.0185 54.4943 44.0359 54.4891C44.0575 54.4751 44.0782 54.4597 44.0979 54.4431C44.1219 54.4324 44.1452 54.4204 44.1679 54.4071C44.518 54.1239 44.9548 53.9695 45.4052 53.9698C46.1847 53.971 46.8924 54.4251 47.2185 55.1331C47.3713 55.4681 47.7668 55.6159 48.1018 55.4631C48.4369 55.3103 48.5846 54.9148 48.4318 54.5798C47.889 53.3965 46.707 52.6376 45.4052 52.6364Z" fill="#FF6881"/>
<path d="M32.2812 48.0039C32.1805 48.0366 29.8252 48.8512 29.8252 51.3032C29.8252 51.6714 30.1237 51.9699 30.4919 51.9699C30.86 51.9699 31.1585 51.6714 31.1585 51.3032C31.2129 50.3732 31.8248 49.5687 32.7065 49.2679C33.0563 49.1504 33.2446 48.7717 33.1272 48.4219C33.0097 48.0721 32.631 47.8838 32.2812 48.0012V48.0039Z" fill="#FF6881"/>
<path d="M41.662 47.2842C41.715 47.2976 41.7694 47.3043 41.824 47.3042C42.1296 47.3038 42.3958 47.0959 42.47 46.7995C42.7769 45.5546 43.8789 44.6691 45.1607 44.6375C45.5289 44.6366 45.8266 44.3374 45.8257 43.9692C45.8247 43.601 45.5255 43.3033 45.1573 43.3042C43.2625 43.3293 41.625 44.6341 41.1774 46.4755C41.0879 46.8326 41.3049 47.1947 41.662 47.2842Z" fill="#FF6881"/>
</svg>
