<svg width="81" height="81" viewBox="0 0 81 81" fill="none" xmlns="http://www.w3.org/2000/svg">
<rect x="1" y="1" width="79" height="79" rx="39.5" fill="#1B75E8" fill-opacity="0.1"/>
<rect x="1" y="1" width="79" height="79" rx="39.5" stroke="#1B75E8" stroke-dasharray="3 2"/>
<path d="M56.4999 43.9702V42.6368C56.8679 42.6368 57.1666 42.3384 57.1666 41.9702V37.9702C57.1666 37.6019 56.8679 37.3035 56.4999 37.3035H52.8999L52.7708 36.8027C52.476 35.6574 52.0182 34.5603 51.4106 33.5454L51.144 33.0993L53.6999 30.5389C53.9572 30.2811 53.9572 29.8634 53.6999 29.6056L50.8687 26.7702C50.6072 26.521 50.1966 26.521 49.9351 26.7702L47.3744 29.3309L46.9286 29.0642C45.9122 28.4564 44.814 27.9986 43.6671 27.7035L43.1666 27.5733V23.9702C43.1666 23.602 42.8682 23.3035 42.5 23.3035H38.5C38.1317 23.3035 37.8333 23.602 37.8333 23.9702V27.5702L37.3325 27.6996C36.1872 27.9942 35.0901 28.452 34.0747 29.0587L33.6286 29.3257L31.0687 26.7702C30.807 26.5189 30.3937 26.5189 30.132 26.7702L27.3 29.6014C27.1755 29.7257 27.1055 29.8944 27.1055 30.0702C27.1055 30.2462 27.1755 30.4147 27.3 30.5389L29.8607 33.0993L29.594 33.5454C28.9867 34.5603 28.5286 35.6574 28.2341 36.8027L28.1034 37.3035H24.5C24.1318 37.3035 23.8333 37.6019 23.8333 37.9702V41.9702C23.8333 42.3384 24.1318 42.6368 24.5 42.6368V43.9702C23.3956 43.9702 22.5 43.0746 22.5 41.9702V37.9702C22.5 36.8657 23.3956 35.9702 24.5 35.9702H27.0794C27.3544 35.0483 27.7263 34.1582 28.1888 33.315L26.3555 31.4817C25.9805 31.1074 25.7698 30.5996 25.7698 30.0702C25.7698 29.5408 25.9805 29.033 26.3555 28.659L29.1888 25.8257C29.9781 25.0702 31.2226 25.0702 32.012 25.8257L33.8448 27.6582C34.688 27.196 35.5784 26.8249 36.5 26.5502V23.9702C36.5 22.8658 37.3955 21.9702 38.5 21.9702H42.5C43.6044 21.9702 44.5 22.8658 44.5 23.9702V26.5502C45.4218 26.8249 46.3117 27.1968 47.1552 27.659L48.9885 25.8257C49.7781 25.0702 51.0223 25.0702 51.8119 25.8257L54.6447 28.6582C55.0195 29.0324 55.2299 29.5397 55.2299 30.0694C55.2299 30.5991 55.0195 31.1069 54.6447 31.4809L52.8114 33.3142C53.2736 34.1579 53.6452 35.0483 53.9205 35.9702H56.4999C57.6044 35.9702 58.4999 36.8657 58.4999 37.9702V41.9702C58.4999 43.0746 57.6044 43.9702 56.4999 43.9702Z" fill="#1B75E8"/>
<path d="M49.8336 39.9695H48.5003C48.5003 35.5513 44.9185 31.9696 40.5003 31.9696C36.0821 31.9696 32.5003 35.5513 32.5003 39.9695H31.167C31.167 34.8149 35.3456 30.6362 40.5003 30.6362C45.6547 30.6362 49.8336 34.8149 49.8336 39.9695Z" fill="#1B75E8"/>
<path d="M40.5 45.3042C38.2909 45.3042 36.5 43.513 36.5 41.3042C36.5 39.0951 38.2909 37.3042 40.5 37.3042C42.7094 37.3042 44.5 39.0951 44.5 41.3042C44.4976 43.5125 42.7083 45.3018 40.5 45.3042ZM40.5 38.6375C39.0273 38.6375 37.8333 39.8315 37.8333 41.3042C37.8333 42.7768 39.0273 43.9708 40.5 43.9708C41.9726 43.9708 43.1667 42.7768 43.1667 41.3042C43.1667 39.8315 41.9726 38.6375 40.5 38.6375Z" fill="#1B75E8"/>
<path d="M51.833 47.9702C49.6239 47.9702 47.833 46.179 47.833 43.9702C47.833 41.7611 49.6239 39.9702 51.833 39.9702C54.0421 39.9702 55.833 41.7611 55.833 43.9702C55.8306 46.1785 54.0413 47.9678 51.833 47.9702ZM51.833 41.3035C50.3603 41.3035 49.1663 42.4975 49.1663 43.9702C49.1663 45.4428 50.3603 46.6369 51.833 46.6369C53.3057 46.6369 54.4997 45.4428 54.4997 43.9702C54.4997 42.4975 53.3057 41.3035 51.833 41.3035Z" fill="#1B75E8"/>
<path d="M29.167 47.9702C26.9579 47.9702 25.167 46.179 25.167 43.9702C25.167 41.7611 26.9579 39.9702 29.167 39.9702C31.3764 39.9702 33.167 41.7611 33.167 43.9702C33.1646 46.1785 31.3753 47.9678 29.167 47.9702ZM29.167 41.3035C27.6943 41.3035 26.5003 42.4975 26.5003 43.9702C26.5003 45.4428 27.6943 46.6369 29.167 46.6369C30.6396 46.6369 31.8336 45.4428 31.8336 43.9702C31.8336 42.4975 30.6396 41.3035 29.167 41.3035Z" fill="#1B75E8"/>
<path d="M57.877 49.6807C56.8835 48.9979 55.7057 48.6336 54.4999 48.637H49.1666C48.8424 48.6399 48.5187 48.6693 48.1992 48.7248C47.7726 48.0576 47.2177 47.4821 46.5666 47.0308C46.469 46.9571 46.3664 46.8901 46.2593 46.831C45.3268 46.2662 44.2567 45.9688 43.1666 45.9703H37.8333C35.7945 45.963 33.8948 47.0034 32.8026 48.7248C32.4823 48.6693 32.158 48.6399 31.8333 48.637H26.5C25.2953 48.6336 24.1177 48.9974 23.1247 49.6794C21.4836 50.7961 20.501 52.6521 20.5 54.637V57.3036C20.5023 59.124 21.5615 60.7771 23.2148 61.5396C23.8252 61.8271 24.4922 61.9742 25.1667 61.9703H31.8333V60.637H25.8333V53.3037H24.5V60.57C24.249 60.5198 24.0052 60.4385 23.774 60.3289C22.593 59.7844 21.8359 58.6039 21.8333 57.3036V54.637C21.8349 53.0922 22.6003 51.6482 23.8773 50.7794C24.649 50.2498 25.5638 49.9677 26.5 49.9703H31.8333C31.9508 49.9703 32.064 49.9828 32.1786 49.9906C31.9531 50.6266 31.8362 51.2958 31.8333 51.9703V58.637C31.8357 60.4771 33.3268 61.968 35.1666 61.9703H37.1666V51.3037H35.8333V60.637H35.1666C34.0622 60.637 33.1666 59.7414 33.1666 58.637V51.9703C33.1666 49.3927 35.2562 47.3037 37.8333 47.3037H43.1666C44.0244 47.3042 44.8651 47.5417 45.5966 47.9896C45.6643 48.0266 45.7294 48.0683 45.7911 48.1141C46.4158 48.5419 46.9286 49.1136 47.2859 49.7807C47.645 50.4547 47.8333 51.2065 47.8333 51.9703V58.637C47.8333 59.7414 46.9377 60.637 45.8333 60.637H45.1666V51.3037H43.8333V61.9703H45.8333C47.6734 61.968 49.1643 60.4771 49.1666 58.637V51.9703C49.1635 51.2958 49.0471 50.6268 48.8218 49.9906C48.9367 49.9828 49.0499 49.9703 49.1666 49.9703H54.4999C55.4366 49.9677 56.3523 50.2505 57.1244 50.7807C58.4004 51.65 59.1648 53.093 59.1666 54.637V57.3036C59.1642 58.6086 58.4015 59.7924 57.2148 60.3341C56.9869 60.4419 56.7468 60.5211 56.4999 60.57V53.3037H55.1666V60.637H49.1666V61.9703H55.8333C56.5038 61.9745 57.1669 61.8292 57.7739 61.5448C59.4327 60.7846 60.4973 59.1284 60.4999 57.3036V54.637C60.4989 52.6529 59.5171 50.7977 57.877 49.6807Z" fill="#1B75E8"/>
<path d="M37.833 60.6362H43.1663V61.9695H37.833V60.6362Z" fill="#1B75E8"/>
</svg>
