<svg width="81" height="81" viewBox="0 0 81 81" fill="none" xmlns="http://www.w3.org/2000/svg">
<rect x="1" y="1" width="79" height="79" rx="39.5" fill="#FFECD9"/>
<rect x="1" y="1" width="79" height="79" rx="39.5" stroke="#D16900" stroke-dasharray="3 2"/>
<path d="M59.0688 52.8545H21.5694C20.4977 52.8545 19.6328 51.9897 19.6328 50.918V24.2388C19.6328 23.1765 20.5071 22.3022 21.5694 22.3022H59.0688C60.1404 22.3022 61.0053 23.1671 61.0053 24.2388V50.918C61.0053 51.9897 60.1404 52.8545 59.0688 52.8545ZM21.5694 23.2423C21.0241 23.2423 20.5729 23.6936 20.5729 24.2388V50.918C20.5729 51.4726 21.0241 51.9145 21.5694 51.9145H59.0688C59.6234 51.9145 60.0652 51.4632 60.0652 50.918V24.2388C60.0652 23.6936 59.614 23.2423 59.0688 23.2423H21.5694Z" fill="#D16900"/>
<path d="M58.016 50.3353H22.6224C22.3592 50.3353 22.1523 50.1285 22.1523 49.8652V25.2918C22.1523 25.0286 22.3592 24.8218 22.6224 24.8218H58.0066C58.2699 24.8218 58.4767 25.0286 58.4767 25.2918V49.8652C58.4861 50.1285 58.2699 50.3353 58.016 50.3353ZM23.0924 49.3952H57.5366V25.7618H23.0924V49.3952Z" fill="#D16900"/>
<path d="M35.0688 59.5949C34.9466 59.5949 34.815 59.5479 34.721 59.4445C34.5424 59.2565 34.5518 58.9557 34.7492 58.7771C37.7668 55.9756 36.5165 52.6948 36.4601 52.5538C36.3661 52.3094 36.4789 52.0368 36.7234 51.9427C36.9678 51.8487 37.2404 51.9615 37.3344 52.206C37.3532 52.2436 37.7386 53.2306 37.6916 54.6125C37.6446 55.891 37.2122 57.7618 35.3885 59.4633C35.2945 59.5573 35.1816 59.5949 35.0688 59.5949Z" fill="#D16900"/>
<path d="M45.5701 59.5952C45.4573 59.5952 45.3445 59.5576 45.2505 59.473C43.4268 57.7808 42.9943 55.9007 42.9473 54.6222C42.9003 53.2403 43.2858 52.2532 43.3046 52.2156C43.3986 51.9712 43.6712 51.8584 43.9156 51.9524C44.16 52.0464 44.2728 52.319 44.1788 52.5635C44.1224 52.7045 42.8815 55.9853 45.8898 58.7867C46.0778 58.9653 46.0872 59.2568 45.918 59.4542C45.8239 59.5482 45.7017 59.5952 45.5701 59.5952Z" fill="#D16900"/>
<path d="M49.7533 62.3013H30.8861C30.6228 62.3013 30.416 62.0945 30.416 61.8312V60.4775C30.416 59.4717 31.2339 58.6538 32.2398 58.6538H48.3996C49.4054 58.6538 50.2233 59.4717 50.2233 60.4775V61.8312C50.2233 62.0851 50.0165 62.3013 49.7533 62.3013ZM31.3561 61.3612H49.2832V60.4775C49.2832 59.9887 48.8884 59.5939 48.3996 59.5939H32.2398C31.7509 59.5939 31.3561 59.9887 31.3561 60.4775V61.3612Z" fill="#D16900"/>
<path d="M31.7696 44.1965C31.685 44.1965 31.6004 44.1777 31.5252 44.1307L26.1104 40.8875C25.9694 40.8029 25.8848 40.6525 25.8848 40.4833V34.3446C25.8848 34.1754 25.9788 34.0156 26.1198 33.931C26.2608 33.8464 26.4488 33.8464 26.5898 33.9404L32.0046 37.1836C32.1456 37.2682 32.2302 37.4186 32.2302 37.5878V43.7265C32.2302 43.8957 32.1362 44.0555 31.9952 44.1401C31.9294 44.1777 31.8448 44.1965 31.7696 44.1965ZM26.8248 40.22L31.2996 42.8992V37.8511L26.8248 35.1719V40.22Z" fill="#D16900"/>
<path d="M31.7689 44.1973C31.6843 44.1973 31.6091 44.1785 31.5338 44.1409C31.3834 44.0563 31.2988 43.9059 31.2988 43.7273V37.5886C31.2988 37.4194 31.3834 37.269 31.5244 37.1844L36.9393 33.9411C37.0803 33.8565 37.2683 33.8565 37.4093 33.9317C37.5597 34.0163 37.6443 34.1761 37.6443 34.3454V40.484C37.6443 40.6532 37.5597 40.8036 37.4187 40.8883L32.0039 44.1315C31.9381 44.1785 31.8535 44.1973 31.7689 44.1973ZM32.2389 37.8518V42.9L36.7136 40.2208V35.1726L32.2389 37.8518Z" fill="#D16900"/>
<path d="M26.3544 34.8147C26.1852 34.8147 26.0254 34.7301 25.9408 34.5703C25.8185 34.3447 25.9031 34.0533 26.1288 33.9311L31.5436 31.0169C31.6846 30.9416 31.8538 30.9416 31.9854 31.0169L37.4002 33.9311C37.6258 34.0533 37.7104 34.3353 37.5882 34.5703C37.466 34.8053 37.184 34.8805 36.949 34.7583L31.7598 31.9663L26.5706 34.7583C26.5048 34.7959 26.4296 34.8147 26.3544 34.8147Z" fill="#D16900"/>
<path d="M35.8305 29.6076H27.7083C27.4451 29.6076 27.2383 29.4007 27.2383 29.1375C27.2383 28.8743 27.4451 28.6675 27.7083 28.6675H35.8305C36.0937 28.6675 36.3006 28.8743 36.3006 29.1375C36.3006 29.4007 36.0937 29.6076 35.8305 29.6076Z" fill="#D16900"/>
<path d="M34.4669 30.9701C34.3447 30.9701 34.2225 30.9231 34.1379 30.8291C33.9593 30.6505 33.9593 30.3497 34.1379 30.1617L35.1719 29.1276L34.1379 28.0935C33.9593 27.9149 33.9593 27.6141 34.1379 27.4261C34.3165 27.2381 34.6173 27.2475 34.8053 27.4261L36.159 28.808C36.3376 28.9866 36.3376 29.2874 36.159 29.4754L34.7959 30.8385C34.7019 30.9231 34.5891 30.9701 34.4669 30.9701Z" fill="#D16900"/>
<path d="M29.0722 30.9709C28.95 30.9709 28.8278 30.9239 28.7432 30.8299L27.3801 29.4668C27.2014 29.2881 27.2014 28.9873 27.3801 28.7993L28.7432 27.4362C28.9218 27.2576 29.2226 27.2576 29.4106 27.4362C29.5892 27.6148 29.5892 27.9156 29.4106 28.1037L28.3765 29.1377L29.4106 30.1718C29.5892 30.3504 29.5892 30.6512 29.4106 30.8393C29.3166 30.9239 29.1944 30.9709 29.0722 30.9709Z" fill="#D16900"/>
<path d="M35.8305 46.5002H27.7083C27.4451 46.5002 27.2383 46.2934 27.2383 46.0302C27.2383 45.767 27.4451 45.5601 27.7083 45.5601H35.8305C36.0937 45.5601 36.3006 45.767 36.3006 46.0302C36.3006 46.2934 36.0937 46.5002 35.8305 46.5002Z" fill="#D16900"/>
<path d="M34.4669 47.8623C34.3447 47.8623 34.2225 47.8153 34.1379 47.7213C33.9593 47.5333 33.9593 47.2419 34.1379 47.0538L35.1719 46.0198L34.1379 44.9857C33.9593 44.7977 33.9593 44.5063 34.1379 44.3182C34.3165 44.1302 34.6173 44.1302 34.8053 44.3182L36.1684 45.6813C36.347 45.8694 36.347 46.1608 36.1684 46.3488L34.8053 47.7119C34.7019 47.8153 34.5891 47.8623 34.4669 47.8623Z" fill="#D16900"/>
<path d="M29.0722 47.8627C28.95 47.8627 28.8278 47.8157 28.7432 47.7217L27.3801 46.3586C27.2014 46.1705 27.2014 45.8791 27.3801 45.6911L28.7432 44.328C28.9218 44.14 29.2226 44.14 29.4106 44.328C29.5892 44.516 29.5892 44.8074 29.4106 44.9955L28.3765 46.0295L29.4106 47.0636C29.5892 47.2516 29.5892 47.543 29.4106 47.7311C29.3166 47.8157 29.1944 47.8627 29.0722 47.8627Z" fill="#D16900"/>
<path d="M42.5507 47.8622H40.9808C40.2945 47.8622 39.7305 47.3076 39.7305 46.6213V31.8152C39.7305 31.552 39.9373 31.3452 40.2005 31.3452H43.3215C43.5848 31.3452 43.7916 31.552 43.7916 31.8152V46.6119C43.801 47.2982 43.2369 47.8622 42.5507 47.8622ZM40.6799 32.2853V46.6119C40.6799 46.7812 40.821 46.9128 40.9902 46.9128H42.5507C42.7199 46.9128 42.8515 46.7718 42.8515 46.6119V32.2853H40.6799Z" fill="#D16900"/>
<path d="M43.3309 32.2866C43.1429 32.2866 42.9643 32.1737 42.8891 31.9857L41.7704 29.0809L40.6517 31.9857C40.5577 32.2302 40.2851 32.3524 40.0406 32.2584C39.7962 32.1643 39.674 31.8917 39.768 31.6473L41.3285 27.605C41.3943 27.4264 41.573 27.3042 41.7704 27.3042C41.9678 27.3042 42.137 27.4264 42.2122 27.605L43.7727 31.6473C43.8667 31.8917 43.7445 32.1643 43.5001 32.2584C43.4437 32.2772 43.3873 32.2866 43.3309 32.2866Z" fill="#D16900"/>
<path d="M43.3313 45.09H40.2103C39.947 45.09 39.7402 44.8831 39.7402 44.6199C39.7402 44.3567 39.947 44.1499 40.2103 44.1499H43.3313C43.5945 44.1499 43.8013 44.3567 43.8013 44.6199C43.8013 44.8831 43.5851 45.09 43.3313 45.09Z" fill="#D16900"/>
<path d="M54.2841 29.4747H46.1243C45.8611 29.4747 45.6543 29.2679 45.6543 29.0047C45.6543 28.7415 45.8611 28.5347 46.1243 28.5347H54.2841C54.5474 28.5347 54.7542 28.7415 54.7542 29.0047C54.7542 29.2679 54.5474 29.4747 54.2841 29.4747Z" fill="#D16900"/>
<path d="M54.2841 32.3321H46.1243C45.8611 32.3321 45.6543 32.1253 45.6543 31.8621C45.6543 31.5989 45.8611 31.3921 46.1243 31.3921H54.2841C54.5474 31.3921 54.7542 31.5989 54.7542 31.8621C54.7542 32.1253 54.5474 32.3321 54.2841 32.3321Z" fill="#D16900"/>
<path d="M54.2841 35.1896H46.1243C45.8611 35.1896 45.6543 34.9828 45.6543 34.7195C45.6543 34.4563 45.8611 34.2495 46.1243 34.2495H54.2841C54.5474 34.2495 54.7542 34.4563 54.7542 34.7195C54.7542 34.9828 54.5474 35.1896 54.2841 35.1896Z" fill="#D16900"/>
<path d="M54.2841 38.0489H46.1243C45.8611 38.0489 45.6543 37.8421 45.6543 37.5789C45.6543 37.3157 45.8611 37.1089 46.1243 37.1089H54.2841C54.5474 37.1089 54.7542 37.3157 54.7542 37.5789C54.7542 37.8421 54.5474 38.0489 54.2841 38.0489Z" fill="#D16900"/>
<path d="M54.2841 40.9064H46.1243C45.8611 40.9064 45.6543 40.6995 45.6543 40.4363C45.6543 40.1731 45.8611 39.9663 46.1243 39.9663H54.2841C54.5474 39.9663 54.7542 40.1731 54.7542 40.4363C54.7542 40.6995 54.5474 40.9064 54.2841 40.9064Z" fill="#D16900"/>
<path d="M54.2841 43.7638H46.1243C45.8611 43.7638 45.6543 43.557 45.6543 43.2938C45.6543 43.0305 45.8611 42.8237 46.1243 42.8237H54.2841C54.5474 42.8237 54.7542 43.0305 54.7542 43.2938C54.7542 43.557 54.5474 43.7638 54.2841 43.7638Z" fill="#D16900"/>
<path d="M54.2841 46.6213H46.1243C45.8611 46.6213 45.6543 46.4145 45.6543 46.1513C45.6543 45.8881 45.8611 45.6812 46.1243 45.6812H54.2841C54.5474 45.6812 54.7542 45.8881 54.7542 46.1513C54.7542 46.4145 54.5474 46.6213 54.2841 46.6213Z" fill="#D16900"/>
</svg>
