<svg width="81" height="81" viewBox="0 0 81 81" fill="none" xmlns="http://www.w3.org/2000/svg">
<rect x="1" y="1" width="79" height="79" rx="39.5" fill="#DCDFFD"/>
<rect x="1" y="1" width="79" height="79" rx="39.5" stroke="#0011BB" stroke-dasharray="3 2"/>
<path d="M55.435 41.6108C56.0513 40.8983 56.75 40.0899 56.75 39.0537C56.75 38.0174 56.0513 37.2095 55.4354 36.497C55.0654 36.0695 54.6833 35.6274 54.59 35.2779C54.4888 34.8983 54.6008 34.3049 54.7092 33.7308C54.8808 32.822 55.0758 31.7925 54.5746 30.9262C54.0667 30.0487 53.0688 29.7016 52.1879 29.395C51.6433 29.2058 51.0804 29.0095 50.8121 28.742C50.5442 28.4737 50.3483 27.9108 50.1592 27.3662C49.8529 26.4854 49.5058 25.4875 48.6275 24.9791C47.7612 24.4779 46.7308 24.6729 45.8229 24.8445C45.2488 24.9529 44.655 25.0645 44.2758 24.9633C43.9263 24.87 43.4846 24.4879 43.0571 24.1187C42.3446 23.5025 41.5362 22.8037 40.5 22.8037C39.4637 22.8037 38.6558 23.5025 37.9433 24.1183C37.5158 24.4883 37.0737 24.8704 36.7242 24.9637C36.3442 25.0633 35.7512 24.9533 35.1771 24.8445C34.2687 24.672 33.2387 24.4779 32.3725 24.9791C31.495 25.487 31.1479 26.485 30.8412 27.3658C30.6521 27.9104 30.4558 28.4733 30.1883 28.7416C29.92 29.0095 29.3571 29.2054 28.8125 29.3945C27.9317 29.7008 26.9337 30.0479 26.4254 30.9262C25.9246 31.792 26.1192 32.8224 26.2908 33.7308C26.3996 34.3049 26.5113 34.8983 26.4096 35.2779C26.3163 35.6274 25.9342 36.0691 25.565 36.4966C24.9488 37.2091 24.25 38.0174 24.25 39.0537C24.25 40.0899 24.9487 40.8979 25.5646 41.6104C25.9346 42.0379 26.3167 42.4799 26.41 42.8295C26.5112 43.2091 26.3992 43.8024 26.2908 44.3766C26.1192 45.2854 25.9242 46.3149 26.4254 47.1812C26.9333 48.0587 27.9313 48.4058 28.8121 48.7124C29.3567 48.9016 29.9196 49.0979 30.1879 49.3654C30.2204 49.3979 30.2517 49.4349 30.2821 49.4758L27.2054 59.2195C27.1258 59.4729 27.1708 59.7491 27.3279 59.9633C27.485 60.177 27.7342 60.3037 28 60.3037H35.5C35.8633 60.3037 36.1854 60.0683 36.2946 59.7216L38.0704 54.0983C38.7521 54.6849 39.5246 55.3037 40.5 55.3037C41.4758 55.3037 42.2479 54.6845 42.9296 54.0979L44.7054 59.7212C44.8146 60.0683 45.1362 60.3037 45.5 60.3037H53C53.2658 60.3037 53.515 60.177 53.6721 59.9633C53.8292 59.7487 53.8742 59.4729 53.7946 59.2195L50.7179 49.4758C50.7483 49.4354 50.7796 49.3983 50.8117 49.3658C51.08 49.0979 51.6429 48.902 52.1875 48.7129C53.0683 48.4066 54.0662 48.0595 54.5746 47.1812C55.0754 46.3154 54.8808 45.2849 54.7092 44.3766C54.6004 43.8024 54.4888 43.2091 54.5904 42.8295C54.6833 42.4799 55.0654 42.0379 55.435 41.6108ZM34.8892 58.637H29.1371L31.28 51.8512C31.5283 52.3633 31.8583 52.8304 32.3725 53.1283C33.2387 53.6295 34.2692 53.4341 35.1771 53.2629C35.7079 53.1624 36.2475 53.0666 36.6275 53.132L34.8892 58.637ZM46.1108 58.637L44.3725 53.1316C44.7521 53.067 45.2917 53.162 45.8229 53.2624C46.7313 53.4345 47.7612 53.6291 48.6275 53.1279C49.1421 52.8304 49.4717 52.3629 49.72 51.8504L51.8629 58.637H46.1108ZM54.1742 40.5208C53.6812 41.0904 53.1721 41.6795 52.98 42.3991C52.7804 43.1454 52.9283 43.9287 53.0712 44.6858C53.195 45.3399 53.3229 46.0166 53.1317 46.3466C52.9338 46.6883 52.2762 46.9174 51.6404 47.1383C50.9183 47.3895 50.1717 47.6491 49.6337 48.1874C49.0954 48.7254 48.8358 49.472 48.5846 50.1941C48.3633 50.8299 48.1346 51.4874 47.7929 51.6854C47.4629 51.8762 46.7862 51.7487 46.1329 51.6249C45.3746 51.4812 44.5917 51.3337 43.8458 51.5329C43.1258 51.7254 42.5367 52.2349 41.9671 52.7279C41.4496 53.1754 40.9158 53.637 40.5 53.637C40.0842 53.637 39.55 53.1749 39.0329 52.7279C38.4633 52.2349 37.8742 51.7258 37.1546 51.5337C36.8942 51.4637 36.6292 51.4366 36.3629 51.4366C35.8654 51.4366 35.3613 51.532 34.8679 51.6249C34.2129 51.7487 33.5367 51.8762 33.2071 51.6854C32.8654 51.4874 32.6362 50.8299 32.4154 50.1941C32.1642 49.472 31.9046 48.7254 31.3663 48.1874C30.8283 47.6491 30.0817 47.3895 29.3596 47.1383C28.7238 46.917 28.0663 46.6883 27.8683 46.3466C27.6771 46.0166 27.8054 45.3404 27.9288 44.6866C28.0721 43.9291 28.22 43.1458 28.0208 42.3995C27.8283 41.6795 27.3187 41.0904 26.8258 40.5208C26.3783 40.0033 25.9167 39.4695 25.9167 39.0537C25.9167 38.6379 26.3788 38.1037 26.8258 37.5866C27.3187 37.017 27.8279 36.4279 28.02 35.7083C28.2196 34.962 28.0717 34.1787 27.9288 33.4216C27.805 32.7674 27.6771 32.0908 27.8683 31.7608C28.0663 31.4191 28.7238 31.19 29.3596 30.9691C30.0817 30.7179 30.8283 30.4583 31.3663 29.92C31.9046 29.382 32.1642 28.6354 32.4154 27.9133C32.6367 27.2775 32.8654 26.62 33.2071 26.422C33.5363 26.2308 34.2133 26.3587 34.8671 26.4825C35.625 26.6262 36.4083 26.7737 37.1542 26.5745C37.8742 26.382 38.4633 25.8725 39.0329 25.3795C39.5504 24.932 40.0842 24.4704 40.5 24.4704C40.9158 24.4704 41.45 24.9325 41.9671 25.3795C42.5367 25.8725 43.1258 26.3816 43.8454 26.5737C44.5921 26.7737 45.375 26.6258 46.1321 26.4825C46.7862 26.3583 47.4629 26.2308 47.7929 26.422C48.1346 26.62 48.3637 27.2775 48.5846 27.9133C48.8358 28.6354 49.0954 29.382 49.6337 29.92C50.1717 30.4583 50.9183 30.7179 51.6404 30.9691C52.2762 31.1904 52.9338 31.4191 53.1317 31.7608C53.3229 32.0908 53.1946 32.767 53.0712 33.4208C52.9279 34.1783 52.78 34.9616 52.9792 35.7079C53.1717 36.4279 53.6812 37.017 54.1742 37.5866C54.6217 38.1041 55.0833 38.6379 55.0833 39.0537C55.0833 39.4695 54.6213 40.0037 54.1742 40.5208ZM40.5 28.637C34.7562 28.637 30.0833 33.3099 30.0833 39.0537C30.0833 44.7974 34.7562 49.4704 40.5 49.4704C46.2437 49.4704 50.9167 44.7974 50.9167 39.0537C50.9167 33.3099 46.2437 28.637 40.5 28.637ZM40.5 47.8037C35.6754 47.8037 31.75 43.8783 31.75 39.0537C31.75 34.2291 35.6754 30.3037 40.5 30.3037C45.3246 30.3037 49.25 34.2291 49.25 39.0537C49.25 43.8783 45.3246 47.8037 40.5 47.8037ZM45.6258 36.6324L42.6108 36.1724L41.2546 33.2829C41.1171 32.9904 40.8229 32.8037 40.5 32.8037C40.1771 32.8037 39.8829 32.9904 39.7454 33.2829L38.3892 36.1724L35.3742 36.6324C35.0654 36.6795 34.8092 36.8958 34.7096 37.192C34.61 37.4883 34.685 37.8149 34.9033 38.0383L37.0854 40.2749L36.3542 43.4495C36.2812 43.7658 36.3983 44.0949 36.6542 44.2941C36.91 44.4937 37.2579 44.5258 37.5467 44.3783L40.5 42.8649L43.4533 44.3787C43.5733 44.4404 43.7033 44.4704 43.8333 44.4704C44.0154 44.4704 44.1962 44.4108 44.3454 44.2945C44.6008 44.0949 44.7183 43.7658 44.6454 43.4499L43.9142 40.2754L46.0962 38.0387C46.3142 37.8154 46.3892 37.4887 46.29 37.1924C46.1908 36.8962 45.9346 36.6799 45.6258 36.6324ZM42.4033 39.437C42.205 39.6399 42.1242 39.9299 42.1875 40.2062L42.6187 42.0787L40.8796 41.187C40.7604 41.1262 40.6296 41.0954 40.4996 41.0954C40.3692 41.0954 40.2388 41.1258 40.1196 41.187L38.3804 42.0787L38.8117 40.2062C38.875 39.9299 38.7942 39.6404 38.5958 39.437L37.2283 38.0358L39.08 37.7529C39.3546 37.7104 39.5908 37.5345 39.7088 37.2829L40.5 35.5983L41.2904 37.2829C41.4083 37.5345 41.6446 37.7104 41.9192 37.7529L43.7708 38.0358L42.4033 39.437Z" fill="#0011BB"/>
</svg>
