<svg width="11" height="15" viewBox="0 0 11 15" fill="none" xmlns="http://www.w3.org/2000/svg">
<path d="M7.875 7.75V9.5H2.625V7.75H7.875ZM10.3086 3.62109C10.4362 3.7487 10.5 3.90365 10.5 4.08594V4.25H7V0.75H7.16406C7.34635 0.75 7.5013 0.813802 7.62891 0.941406L10.3086 3.62109ZM6.125 4.46875C6.125 4.65104 6.1888 4.80599 6.31641 4.93359C6.44401 5.0612 6.59896 5.125 6.78125 5.125H10.5V14.0938C10.5 14.276 10.4362 14.431 10.3086 14.5586C10.181 14.6862 10.026 14.75 9.84375 14.75H0.65625C0.473958 14.75 0.31901 14.6862 0.191406 14.5586C0.0638021 14.431 0 14.276 0 14.0938V1.40625C0 1.22396 0.0638021 1.06901 0.191406 0.941406C0.31901 0.813802 0.473958 0.75 0.65625 0.75H6.125V4.46875ZM1.75 2.71875V3.15625C1.75 3.30208 1.82292 3.375 1.96875 3.375H4.15625C4.30208 3.375 4.375 3.30208 4.375 3.15625V2.71875C4.375 2.57292 4.30208 2.5 4.15625 2.5H1.96875C1.82292 2.5 1.75 2.57292 1.75 2.71875ZM1.75 4.46875V4.90625C1.75 5.05208 1.82292 5.125 1.96875 5.125H4.15625C4.30208 5.125 4.375 5.05208 4.375 4.90625V4.46875C4.375 4.32292 4.30208 4.25 4.15625 4.25H1.96875C1.82292 4.25 1.75 4.32292 1.75 4.46875ZM8.75 12.7812V12.3438C8.75 12.1979 8.67708 12.125 8.53125 12.125H6.34375C6.19792 12.125 6.125 12.1979 6.125 12.3438V12.7812C6.125 12.9271 6.19792 13 6.34375 13H8.53125C8.67708 13 8.75 12.9271 8.75 12.7812ZM8.75 7.3125C8.75 7.1849 8.70443 7.08464 8.61328 7.01172C8.54036 6.92057 8.4401 6.875 8.3125 6.875H2.1875C2.0599 6.875 1.95052 6.92057 1.85938 7.01172C1.78646 7.08464 1.75 7.1849 1.75 7.3125V9.9375C1.75 10.0651 1.78646 10.1745 1.85938 10.2656C1.95052 10.3385 2.0599 10.375 2.1875 10.375H8.3125C8.4401 10.375 8.54036 10.3385 8.61328 10.2656C8.70443 10.1745 8.75 10.0651 8.75 9.9375V7.3125Z" fill="black"/>
</svg>
