<svg width="12" height="16" viewBox="0 0 12 16" fill="none" xmlns="http://www.w3.org/2000/svg">
<path d="M9 8V10H3V8H9ZM11.7812 3.28125C11.9271 3.42708 12 3.60417 12 3.8125V4H8V0H8.1875C8.39583 0 8.57292 0.0729167 8.71875 0.21875L11.7812 3.28125ZM7 4.25C7 4.45833 7.07292 4.63542 7.21875 4.78125C7.36458 4.92708 7.54167 5 7.75 5H12V15.25C12 15.4583 11.9271 15.6354 11.7812 15.7812C11.6354 15.9271 11.4583 16 11.25 16H0.75C0.541667 16 0.364583 15.9271 0.21875 15.7812C0.0729167 15.6354 0 15.4583 0 15.25V0.75C0 0.541667 0.0729167 0.364583 0.21875 0.21875C0.364583 0.0729167 0.541667 0 0.75 0H7V4.25ZM2 2.25V2.75C2 2.91667 2.08333 3 2.25 3H4.75C4.91667 3 5 2.91667 5 2.75V2.25C5 2.08333 4.91667 2 4.75 2H2.25C2.08333 2 2 2.08333 2 2.25ZM2 4.25V4.75C2 4.91667 2.08333 5 2.25 5H4.75C4.91667 5 5 4.91667 5 4.75V4.25C5 4.08333 4.91667 4 4.75 4H2.25C2.08333 4 2 4.08333 2 4.25ZM10 13.75V13.25C10 13.0833 9.91667 13 9.75 13H7.25C7.08333 13 7 13.0833 7 13.25V13.75C7 13.9167 7.08333 14 7.25 14H9.75C9.91667 14 10 13.9167 10 13.75ZM10 7.5C10 7.35417 9.94792 7.23958 9.84375 7.15625C9.76042 7.05208 9.64583 7 9.5 7H2.5C2.35417 7 2.22917 7.05208 2.125 7.15625C2.04167 7.23958 2 7.35417 2 7.5V10.5C2 10.6458 2.04167 10.7708 2.125 10.875C2.22917 10.9583 2.35417 11 2.5 11H9.5C9.64583 11 9.76042 10.9583 9.84375 10.875C9.94792 10.7708 10 10.6458 10 10.5V7.5Z" fill="#7768E5"/>
</svg>
