<svg width="79" height="15" viewBox="0 0 79 15" fill="none" xmlns="http://www.w3.org/2000/svg">
<path d="M7.58203 0.722168C7.74609 0.394043 8.01042 0.22998 8.375 0.22998C8.73958 0.22998 9.00391 0.394043 9.16797 0.722168L10.9453 4.33154L14.9375 4.93311C15.3021 4.96956 15.5391 5.16097 15.6484 5.50732C15.7578 5.85368 15.6849 6.15446 15.4297 6.40967L12.5312 9.22607L13.2148 13.2183C13.2695 13.5646 13.151 13.8381 12.8594 14.0386C12.5677 14.2573 12.2669 14.2847 11.957 14.1206L8.375 12.2612L4.79297 14.1206C4.48307 14.3029 4.18229 14.2847 3.89062 14.0659C3.59896 13.8472 3.48047 13.5646 3.53516 13.2183L4.21875 9.22607L1.32031 6.40967C1.0651 6.15446 0.992188 5.85368 1.10156 5.50732C1.21094 5.16097 1.44792 4.96956 1.8125 4.93311L5.80469 4.33154L7.58203 0.722168ZM23.332 0.722168C23.4961 0.394043 23.7604 0.22998 24.125 0.22998C24.4896 0.22998 24.7539 0.394043 24.918 0.722168L26.6953 4.33154L30.6875 4.93311C31.0521 4.96956 31.2891 5.16097 31.3984 5.50732C31.5078 5.85368 31.4349 6.15446 31.1797 6.40967L28.2812 9.22607L28.9648 13.2183C29.0195 13.5646 28.901 13.8381 28.6094 14.0386C28.3177 14.2573 28.0169 14.2847 27.707 14.1206L24.125 12.2612L20.543 14.1206C20.2331 14.3029 19.9323 14.2847 19.6406 14.0659C19.349 13.8472 19.2305 13.5646 19.2852 13.2183L19.9688 9.22607L17.0703 6.40967C16.8151 6.15446 16.7422 5.85368 16.8516 5.50732C16.9609 5.16097 17.1979 4.96956 17.5625 4.93311L21.5547 4.33154L23.332 0.722168ZM39.082 0.722168C39.2461 0.394043 39.5104 0.22998 39.875 0.22998C40.2396 0.22998 40.5039 0.394043 40.668 0.722168L42.4453 4.33154L46.4375 4.93311C46.8021 4.96956 47.0391 5.16097 47.1484 5.50732C47.2578 5.85368 47.1849 6.15446 46.9297 6.40967L44.0312 9.22607L44.7148 13.2183C44.7695 13.5646 44.651 13.8381 44.3594 14.0386C44.0677 14.2573 43.7669 14.2847 43.457 14.1206L39.875 12.2612L36.293 14.1206C35.9831 14.3029 35.6823 14.2847 35.3906 14.0659C35.099 13.8472 34.9805 13.5646 35.0352 13.2183L35.7188 9.22607L32.8203 6.40967C32.5651 6.15446 32.4922 5.85368 32.6016 5.50732C32.7109 5.16097 32.9479 4.96956 33.3125 4.93311L37.3047 4.33154L39.082 0.722168ZM54.832 0.722168C54.9961 0.394043 55.2604 0.22998 55.625 0.22998C55.9896 0.22998 56.2539 0.394043 56.418 0.722168L58.1953 4.33154L62.1875 4.93311C62.5521 4.96956 62.7891 5.16097 62.8984 5.50732C63.0078 5.85368 62.9349 6.15446 62.6797 6.40967L59.7812 9.22607L60.4648 13.2183C60.5195 13.5646 60.401 13.8381 60.1094 14.0386C59.8177 14.2573 59.5169 14.2847 59.207 14.1206L55.625 12.2612L52.043 14.1206C51.7331 14.3029 51.4323 14.2847 51.1406 14.0659C50.849 13.8472 50.7305 13.5646 50.7852 13.2183L51.4688 9.22607L48.5703 6.40967C48.3151 6.15446 48.2422 5.85368 48.3516 5.50732C48.4609 5.16097 48.6979 4.96956 49.0625 4.93311L53.0547 4.33154L54.832 0.722168ZM70.582 0.722168C70.7461 0.394043 71.0104 0.22998 71.375 0.22998C71.7396 0.22998 72.0039 0.394043 72.168 0.722168L73.9453 4.33154L77.9375 4.93311C78.3021 4.96956 78.5391 5.16097 78.6484 5.50732C78.7578 5.85368 78.6849 6.15446 78.4297 6.40967L75.5312 9.22607L76.2148 13.2183C76.2695 13.5646 76.151 13.8381 75.8594 14.0386C75.5677 14.2573 75.2669 14.2847 74.957 14.1206L71.375 12.2612L67.793 14.1206C67.4831 14.3029 67.1823 14.2847 66.8906 14.0659C66.599 13.8472 66.4805 13.5646 66.5352 13.2183L67.2188 9.22607L64.3203 6.40967C64.0651 6.15446 63.9922 5.85368 64.1016 5.50732C64.2109 5.16097 64.4479 4.96956 64.8125 4.93311L68.8047 4.33154L70.582 0.722168Z" fill="#FC6441"/>
</svg>
