<svg width="13" height="15" viewBox="0 0 13 15" fill="none" xmlns="http://www.w3.org/2000/svg">
<path d="M8.87593 6.73828C8.20145 7.41276 7.38114 7.75 6.41499 7.75C5.44885 7.75 4.61942 7.41276 3.92671 6.73828C3.25223 6.04557 2.91499 5.21615 2.91499 4.25C2.91499 3.28385 3.25223 2.46354 3.92671 1.78906C4.61942 1.09635 5.44885 0.75 6.41499 0.75C7.38114 0.75 8.20145 1.09635 8.87593 1.78906C9.56864 2.46354 9.91499 3.28385 9.91499 4.25C9.91499 5.21615 9.56864 6.04557 8.87593 6.73828ZM8.87593 8.625C9.87853 8.625 10.7353 8.98958 11.4462 9.71875C12.1754 10.4297 12.54 11.2865 12.54 12.2891V13.4375C12.54 13.8021 12.4124 14.112 12.1572 14.3672C11.902 14.6224 11.5921 14.75 11.2275 14.75H1.60249C1.23791 14.75 0.928014 14.6224 0.672806 14.3672C0.417597 14.112 0.289993 13.8021 0.289993 13.4375V12.2891C0.289993 11.2865 0.645462 10.4297 1.3564 9.71875C2.08557 8.98958 2.95145 8.625 3.95406 8.625H4.4189C5.05692 8.91667 5.72228 9.0625 6.41499 9.0625C7.1077 9.0625 7.77307 8.91667 8.41109 8.625H8.87593Z" fill="black"/>
</svg>
