<svg width="15" height="15" viewBox="0 0 15 15" fill="none" xmlns="http://www.w3.org/2000/svg">
<path d="M2.7375 2.96484C4.06823 1.63411 5.6724 0.96875 7.55 0.96875C9.42761 0.96875 11.0227 1.63411 12.3352 2.96484C13.6659 4.27734 14.3313 5.8724 14.3313 7.75C14.3313 9.6276 13.6659 11.2318 12.3352 12.5625C11.0227 13.875 9.42761 14.5312 7.55 14.5312C5.6724 14.5312 4.06823 13.875 2.7375 12.5625C1.425 11.2318 0.768753 9.6276 0.768753 7.75C0.768753 5.8724 1.425 4.27734 2.7375 2.96484ZM9.1086 10.5391C9.29089 10.6667 9.44584 10.6484 9.57344 10.4844L10.3391 9.41797C10.4667 9.23568 10.4484 9.08073 10.2844 8.95312L8.53438 7.69531V3.92188C8.53438 3.70312 8.425 3.59375 8.20625 3.59375H6.89375C6.675 3.59375 6.56563 3.70312 6.56563 3.92188V8.51562C6.56563 8.625 6.6112 8.71615 6.70235 8.78906L9.1086 10.5391Z" fill="black"/>
</svg>
