<svg width="16" height="16" viewBox="0 0 16 16" fill="none" xmlns="http://www.w3.org/2000/svg">
<path d="M2.25 2.28125C3.77083 0.760417 5.60417 0 7.75 0C9.89583 0 11.7188 0.760417 13.2188 2.28125C14.7396 3.78125 15.5 5.60417 15.5 7.75C15.5 9.89583 14.7396 11.7292 13.2188 13.25C11.7188 14.75 9.89583 15.5 7.75 15.5C5.60417 15.5 3.77083 14.75 2.25 13.25C0.75 11.7292 0 9.89583 0 7.75C0 5.60417 0.75 3.78125 2.25 2.28125ZM9.53125 10.9375C9.73958 11.0833 9.91667 11.0625 10.0625 10.875L10.9375 9.65625C11.0833 9.44792 11.0625 9.27083 10.875 9.125L8.875 7.6875V3.375C8.875 3.125 8.75 3 8.5 3H7C6.75 3 6.625 3.125 6.625 3.375V8.625C6.625 8.75 6.67708 8.85417 6.78125 8.9375L9.53125 10.9375Z" fill="#7768E5"/>
</svg>
